<svg width="110" height="121" viewBox="0 0 110 121" fill="none" xmlns="http://www.w3.org/2000/svg">
<g filter="url(#filter0_d_49_2923)">
<path fill-rule="evenodd" clip-rule="evenodd" d="M18.7728 35.9769C18.8206 32.7722 18.8775 28.9499 18.8794 23.9253C18.4246 13.0397 38.4994 13.7099 54.8016 14.2542C59.5637 14.4132 64.0039 14.5615 67.5164 14.4078C79.0002 13.728 88.5655 13.9387 87.1063 27.3245C86.4793 33.0723 86.6958 39.0846 86.9047 44.8877C87.0064 47.7122 87.1063 50.4871 87.1063 53.1578C87.1063 54.2966 87.2053 56.0645 87.3263 58.2241C87.855 67.6675 88.8033 84.6017 83.7288 89.1885C79.8986 92.6488 57.3837 91.228 57.3837 91.228C53.2428 101.058 51.9661 103.098 49.9531 106.184C49.3264 104.923 48.9497 102.441 48.5425 99.7591C48.0719 96.6591 47.5606 93.2909 46.5755 91.228C46.5755 91.228 29.0121 93.9473 22.9325 89.1885C18.4986 85.284 19.0668 70.8538 19.4137 62.0436C19.4896 60.1158 19.5549 58.4572 19.5549 57.2367C18.5932 48.042 18.655 43.894 18.7728 35.9769ZM32.2414 36.3946C32.2414 35.2901 33.1368 34.3946 34.2414 34.3946H72.1232C73.2278 34.3946 74.1232 35.2901 74.1232 36.3946V37.8332C74.1232 38.9378 73.2278 39.8332 72.1232 39.8332H34.2414C33.1368 39.8332 32.2414 38.9378 32.2414 37.8332V36.3946ZM32.2414 46.592C32.2414 45.4874 33.1368 44.592 34.2414 44.592H66.0436C67.1482 44.592 68.0436 45.4874 68.0436 46.592V48.0306C68.0436 49.1352 67.1482 50.0306 66.0436 50.0306H34.2414C33.1368 50.0306 32.2414 49.1352 32.2414 48.0306V46.592ZM34.2414 64.9867C33.1368 64.9867 32.2414 65.8822 32.2414 66.9867V68.4253C32.2414 69.5299 33.1368 70.4253 34.2414 70.4253H52.5333C53.6379 70.4253 54.5333 69.5299 54.5333 68.4253V66.9867C54.5333 65.8822 53.6379 64.9867 52.5333 64.9867H34.2414ZM32.2414 56.7894C32.2414 55.6848 33.1368 54.7894 34.2414 54.7894H69.4212C70.5258 54.7894 71.4212 55.6848 71.4212 56.7894V58.228C71.4212 59.3325 70.5258 60.228 69.4212 60.228H34.2414C33.1368 60.228 32.2414 59.3325 32.2414 58.228V56.7894Z" fill="#52BAE2"/>
</g>
<defs>
<filter id="filter0_d_49_2923" x="0.708008" y="-3.99927" width="109.052" height="132.183" filterUnits="userSpaceOnUse" color-interpolation-filters="sRGB">
<feFlood flood-opacity="0" result="BackgroundImageFix"/>
<feColorMatrix in="SourceAlpha" type="matrix" values="0 0 0 0 0 0 0 0 0 0 0 0 0 0 0 0 0 0 127 0" result="hardAlpha"/>
<feOffset dx="2" dy="2"/>
<feGaussianBlur stdDeviation="10"/>
<feComposite in2="hardAlpha" operator="out"/>
<feColorMatrix type="matrix" values="0 0 0 0 0 0 0 0 0 0 0 0 0 0 0 0 0 0 0.25 0"/>
<feBlend mode="normal" in2="BackgroundImageFix" result="effect1_dropShadow_49_2923"/>
<feBlend mode="normal" in="SourceGraphic" in2="effect1_dropShadow_49_2923" result="shape"/>
</filter>
</defs>
</svg>
