<svg width="128" height="110" viewBox="0 0 128 110" fill="none" xmlns="http://www.w3.org/2000/svg">
<g filter="url(#filter0_d_49_2909)">
<path fill-rule="evenodd" clip-rule="evenodd" d="M57.7468 18.9972C64.4735 19.0358 72.136 19.0798 80.7901 18.7719C82.1007 18.7719 83.437 18.7422 84.7781 18.7123C94.6003 18.4938 104.682 18.2695 106.851 29.6763C109.533 43.7826 109.884 56.6381 106.851 67.5493C103.217 82.3151 83.276 78.5149 83.276 78.5149C81.4926 85.9521 76.4398 93.8653 64.3143 90.0175L64.4956 89.908C68.6787 87.3818 72.8833 84.8427 74.0552 79.1063C70.0674 79.0697 65.5957 79.4001 60.9458 79.7436C50.0553 80.5483 38.1874 81.4252 29.2687 77.8282C18.434 72.9999 18.3954 57.3907 18.367 45.9246V45.9236C18.3652 45.2013 18.3635 44.4955 18.3591 43.8098C18.196 18.7699 30.0238 18.8379 57.7468 18.9972ZM36.4972 36.3114C35.3926 36.3114 34.4972 37.2069 34.4972 38.3114V39.75C34.4972 40.8546 35.3926 41.75 36.4972 41.75H89.9159C91.0205 41.75 91.9159 40.8546 91.9159 39.75V38.3114C91.9159 37.2069 91.0205 36.3114 89.9159 36.3114H36.4972ZM34.4972 48.5088C34.4972 47.4042 35.3926 46.5088 36.4972 46.5088H81.1342C82.2388 46.5088 83.1342 47.4042 83.1342 48.5088V49.9474C83.1342 51.052 82.2388 51.9474 81.1342 51.9474H36.4972C35.3926 51.9474 34.4972 51.052 34.4972 49.9474V48.5088ZM36.4972 56.7062C35.3926 56.7062 34.4972 57.6016 34.4972 58.7062V60.1448C34.4972 61.2493 35.3926 62.1448 36.4972 62.1448H86.5383C87.6429 62.1448 88.5383 61.2493 88.5383 60.1448V58.7062C88.5383 57.6016 87.6429 56.7062 86.5383 56.7062H36.4972Z" fill="#FBC665"/>
</g>
<defs>
<filter id="filter0_d_49_2909" x="0.357422" y="0.6521" width="130.639" height="112.371" filterUnits="userSpaceOnUse" color-interpolation-filters="sRGB">
<feFlood flood-opacity="0" result="BackgroundImageFix"/>
<feColorMatrix in="SourceAlpha" type="matrix" values="0 0 0 0 0 0 0 0 0 0 0 0 0 0 0 0 0 0 127 0" result="hardAlpha"/>
<feOffset dx="2" dy="2"/>
<feGaussianBlur stdDeviation="10"/>
<feComposite in2="hardAlpha" operator="out"/>
<feColorMatrix type="matrix" values="0 0 0 0 0 0 0 0 0 0 0 0 0 0 0 0 0 0 0.25 0"/>
<feBlend mode="normal" in2="BackgroundImageFix" result="effect1_dropShadow_49_2909"/>
<feBlend mode="normal" in="SourceGraphic" in2="effect1_dropShadow_49_2909" result="shape"/>
</filter>
</defs>
</svg>
