<svg width="133" height="115" viewBox="0 0 133 115" fill="none" xmlns="http://www.w3.org/2000/svg">
<g filter="url(#filter0_d_49_2902)">
<path fill-rule="evenodd" clip-rule="evenodd" d="M80.1895 19.0629C81.803 19.1144 83.3879 19.165 84.9364 19.2103C97.1294 19.2103 105.465 20.4544 108.025 31.6851C110.592 44.1463 110.592 60.9719 108.667 73.4331C106.569 84.6394 98.9038 84.6031 89.17 84.557C86.9935 84.5467 84.7136 84.5359 82.3694 84.6502C81.2123 84.6502 80.0986 84.6079 79.0436 84.5679C73.0833 84.3416 68.9962 84.1865 69.5414 92.1283C70.1831 96.486 72.7501 98.9809 77.2422 100.85C66.9812 102.095 61.2055 95.8673 62.489 85.8943C57.3585 84.9595 52.0658 85.2706 46.7732 85.5816C41.4805 85.8926 36.1879 86.2036 31.0574 85.2689C19.0557 83.0458 18.7666 74.886 18.3922 64.319C18.3464 63.0264 18.2993 61.6979 18.2293 60.3397C18.134 58.6732 17.9537 56.773 17.7599 54.7308C16.6493 43.0275 15.0966 26.6654 26.5652 22.9494C40.6921 17.8028 62.2137 18.4894 80.1895 19.0629ZM36.5635 39.9517C35.4589 39.9517 34.5635 40.8471 34.5635 41.9517V43.3903C34.5635 44.4948 35.4589 45.3903 36.5635 45.3903H89.9822C91.0867 45.3903 91.9822 44.4948 91.9822 43.3903V41.9517C91.9822 40.8471 91.0867 39.9517 89.9822 39.9517H36.5635ZM34.5635 52.1492C34.5635 51.0446 35.4589 50.1492 36.5635 50.1492H81.2005C82.3051 50.1492 83.2005 51.0446 83.2005 52.1492V53.5878C83.2005 54.6923 82.3051 55.5878 81.2005 55.5878H36.5635C35.4589 55.5878 34.5635 54.6923 34.5635 53.5878V52.1492ZM36.5635 60.3464C35.4589 60.3464 34.5635 61.2419 34.5635 62.3464V63.785C34.5635 64.8896 35.4589 65.785 36.5635 65.785H86.6046C87.7092 65.785 88.6046 64.8896 88.6046 63.785V62.3464C88.6046 61.2419 87.7092 60.3464 86.6046 60.3464H36.5635Z" fill="#97ABED"/>
</g>
<defs>
<filter id="filter0_d_49_2902" x="-1.00098" y="0.671875" width="133.04" height="122.336" filterUnits="userSpaceOnUse" color-interpolation-filters="sRGB">
<feFlood flood-opacity="0" result="BackgroundImageFix"/>
<feColorMatrix in="SourceAlpha" type="matrix" values="0 0 0 0 0 0 0 0 0 0 0 0 0 0 0 0 0 0 127 0" result="hardAlpha"/>
<feOffset dx="2" dy="2"/>
<feGaussianBlur stdDeviation="10"/>
<feComposite in2="hardAlpha" operator="out"/>
<feColorMatrix type="matrix" values="0 0 0 0 0 0 0 0 0 0 0 0 0 0 0 0 0 0 0.25 0"/>
<feBlend mode="normal" in2="BackgroundImageFix" result="effect1_dropShadow_49_2902"/>
<feBlend mode="normal" in="SourceGraphic" in2="effect1_dropShadow_49_2902" result="shape"/>
</filter>
</defs>
</svg>
