<svg width="252" height="75" viewBox="0 0 252 75" fill="none" xmlns="http://www.w3.org/2000/svg">
<path d="M12.2905 74.8781H138.606C144.859 74.8781 149.946 69.8281 149.964 63.5601V26.8871L163.901 14.5271H12.3082C6.0374 14.5271 0.950195 19.6121 0.950195 25.8801V63.5251C0.950195 69.7751 6.0021 74.8611 12.2728 74.8781H12.3082H12.2905Z" fill="#EBEBEB"/>
<path d="M132.936 32.4489C132.936 32.6959 106.935 32.8719 74.839 32.8719C42.7436 32.8719 16.7422 32.6959 16.7422 32.4489C16.7422 32.2009 42.7436 32.0249 74.839 32.0249C106.935 32.0249 132.936 32.2189 132.936 32.4489Z" fill="white"/>
<path d="M132.936 42.266C132.936 42.513 106.935 42.69 74.839 42.69C42.7436 42.69 16.7422 42.513 16.7422 42.266C16.7422 42.019 42.7436 41.842 74.839 41.842C106.935 41.842 132.936 42.036 132.936 42.266Z" fill="white"/>
<path d="M132.936 52.0651C132.936 52.2951 106.935 52.4891 74.839 52.4891C42.7436 52.4891 16.7422 52.2951 16.7422 52.0651C16.7422 51.8361 42.7436 51.6411 74.839 51.6411C106.935 51.6411 132.936 51.8361 132.936 52.0651Z" fill="white"/>
<path d="M132.936 61.883C132.936 62.112 106.935 62.306 74.839 62.306C42.7436 62.306 16.7422 62.112 16.7422 61.883C16.7422 61.653 42.7436 61.459 74.839 61.459C106.935 61.459 132.936 61.635 132.936 61.883Z" fill="white"/>
<path d="M214.862 74.225C235.309 74.225 251.885 57.655 251.885 37.216C251.885 16.776 235.309 0.207031 214.862 0.207031C194.414 0.207031 177.838 16.776 177.838 37.216C177.838 57.655 194.414 74.225 214.862 74.225Z" fill="#0386B7"/>
<mask id="mask0_63_549" style="mask-type:luminance" maskUnits="userSpaceOnUse" x="177" y="0" width="75" height="75">
<path d="M214.862 74.225C235.309 74.225 251.885 57.655 251.885 37.216C251.885 16.776 235.309 0.207031 214.862 0.207031C194.414 0.207031 177.838 16.776 177.838 37.216C177.838 57.655 194.414 74.225 214.862 74.225Z" fill="white"/>
</mask>
<g mask="url(#mask0_63_549)">
<path d="M242.312 74.808C243.742 66.668 243.884 60.241 243.884 60.117C243.884 60.117 240.739 53.036 216.398 53.301C192.057 53.566 188.913 60.117 188.913 60.117C188.913 60.117 188.984 66.597 190.397 74.808H242.294H242.312Z" fill="white"/>
<path d="M223.676 74.807C222.387 71.7 219.437 69.404 215.851 69.139C211.788 68.839 208.149 71.241 206.683 74.807H223.676Z" fill="#263238"/>
<path d="M220.885 74.8081C219.79 73.0421 217.9 71.8061 215.674 71.6291C213.095 71.4351 210.746 72.7421 209.474 74.8081H220.885Z" fill="white"/>
<path d="M188.808 60.0811H188.949L189.355 60.2231L190.91 60.7701L192.022 61.1761L193.383 61.6002C194.354 61.8822 195.432 62.2712 196.686 62.5002L198.629 62.9951C199.3 63.1711 200.007 63.2952 200.748 63.4542C202.197 63.7892 203.787 64.0191 205.447 64.2841C212.672 65.3251 220.02 65.3251 227.244 64.2841C228.905 64.0191 230.495 63.7892 231.943 63.4542C232.685 63.2952 233.391 63.1711 234.063 62.9951L236.006 62.5002C237.242 62.2182 238.337 61.8292 239.309 61.6002C239.786 61.4592 240.21 61.3352 240.651 61.1942L241.764 60.7881L243.301 60.2401L243.707 60.0992L243.849 60.0461C243.849 60.0461 243.796 60.0462 243.707 60.1172L243.301 60.2762L241.764 60.8412L240.651 61.2642C240.245 61.4062 239.75 61.5291 239.309 61.7061C238.337 61.9881 237.26 62.3772 236.006 62.6772L234.063 63.1891C233.391 63.3661 232.685 63.4891 231.943 63.6661C230.477 64.0011 228.905 64.2312 227.244 64.5132C220.002 65.5732 212.636 65.5732 205.376 64.5132C203.698 64.2482 202.126 64.0011 200.66 63.6661C199.936 63.5071 199.212 63.3832 198.54 63.2072L196.597 62.6952C195.361 62.3942 194.266 62.0061 193.294 61.7061L191.952 61.2822L190.839 60.8582L189.302 60.2762L188.896 60.1172H188.772L188.808 60.0811Z" fill="#263238"/>
<g opacity="0.3">
<path d="M188.913 60.1172C188.913 60.1172 192.057 53.5842 216.398 53.3012C240.739 53.0192 243.884 60.1172 243.884 60.1172C243.884 60.1172 219.348 72.2122 188.913 60.1172Z" fill="black"/>
</g>
<path d="M190.114 67.515C190.22 68.981 190.415 70.693 190.697 72.6C190.803 73.307 190.927 74.048 191.051 74.808H191.227C191.086 74.048 190.962 73.289 190.856 72.565C190.591 70.658 190.362 68.928 190.22 67.48C190.15 66.756 190.097 66.085 190.044 65.52C189.991 64.955 190.009 64.408 189.938 64.037C189.867 63.666 189.867 63.366 189.867 63.136V64.054C189.885 64.461 189.92 64.955 189.956 65.538C189.991 66.12 190.044 66.774 190.114 67.498V67.515Z" fill="#263238"/>
<path d="M205.553 74.8071C205.677 74.4901 205.8 74.1721 205.942 73.8541C206.313 73.0421 206.789 72.2821 207.372 71.6111C207.779 71.1351 208.044 70.8881 208.026 70.8701C208.026 70.8701 207.955 70.9231 207.832 71.0291C207.655 71.1881 207.478 71.3641 207.319 71.5411C206.719 72.2121 206.207 72.9711 205.818 73.7831C205.659 74.1191 205.518 74.4541 205.394 74.7901H205.553V74.8071Z" fill="#263238"/>
<path d="M214.544 10.695C214.544 10.695 191.28 10.412 187.641 30.577C184.003 50.741 203.627 51.094 209.297 51.465C211.876 51.641 217.352 51.659 222.192 51.571C232.914 51.394 240.492 49.311 243.089 39.37C243.389 38.204 243.583 37.004 243.672 35.803C244.29 24.909 236.906 10.165 214.544 10.712V10.695ZM192.252 36.103C192.252 36.103 192.252 35.98 192.252 35.927C193.064 35.044 194.23 34.496 195.52 34.496C197.975 34.496 199.953 36.492 199.953 38.928C199.953 41.365 198.046 43.29 195.661 43.36C193.488 41.489 192.234 39.087 192.234 36.103H192.252ZM235.211 43.29C233.162 42.901 231.625 41.1 231.625 38.928C231.625 36.474 233.621 34.496 236.058 34.496C236.959 34.496 237.79 34.761 238.496 35.22C238.514 35.521 238.531 35.803 238.531 36.103C238.531 39.052 237.313 41.436 235.211 43.29Z" fill="white"/>
<path d="M231.625 38.9461C231.625 41.1001 233.162 42.9011 235.211 43.3071C231.166 46.8741 223.8 48.4811 215.392 48.4811C206.983 48.4811 199.741 46.8921 195.661 43.3781C198.045 43.3071 199.953 41.3471 199.953 38.9461C199.953 36.5451 197.957 34.5141 195.52 34.5141C194.23 34.5141 193.064 35.0611 192.252 35.9441C192.393 27.4161 202.709 20.5471 215.392 20.5471C228.074 20.5471 237.825 27.0451 238.496 35.2561C237.789 34.7971 236.959 34.5321 236.058 34.5321C233.603 34.5321 231.625 36.5271 231.625 38.9641V38.9461Z" fill="#263238"/>
<path d="M206.454 31.7421C206.242 32.8541 205.146 33.5961 204.034 33.3661C202.921 33.1541 202.179 32.0601 202.408 30.9471C202.638 29.8351 203.716 29.0931 204.828 29.3231C205.941 29.5521 206.665 30.6291 206.454 31.7421Z" fill="white"/>
<path d="M226.449 31.3539C226.237 32.4659 225.142 33.2079 224.029 32.9779C222.917 32.7659 222.175 31.6709 222.404 30.5589C222.616 29.4469 223.711 28.7049 224.824 28.9349C225.937 29.1459 226.661 30.2409 226.449 31.3539Z" fill="white"/>
<path d="M211.612 12.2131H211.276C211.064 12.2131 210.746 12.2131 210.375 12.2841C209.227 12.4071 208.079 12.5841 206.948 12.8491C205.27 13.2371 203.645 13.8201 202.073 14.5441C200.165 15.4441 198.364 16.574 196.739 17.916C193.789 20.388 191.439 23.4781 189.867 26.9921C189.39 28.0511 188.984 29.1461 188.666 30.2591C188.542 30.6651 188.472 30.9651 188.419 31.1591L188.348 31.3891L188.401 31.1411C188.454 30.9301 188.507 30.6121 188.613 30.2411C188.896 29.1111 189.267 28.0161 189.726 26.9391C190.415 25.3321 191.263 23.8141 192.27 22.4011C195.785 17.4931 200.996 14.0491 206.878 12.7431C208.026 12.4961 209.192 12.319 210.358 12.231H211.594V12.1951L211.612 12.2131Z" fill="#263238"/>
<path d="M188.843 40.1112C188.701 39.8822 188.578 39.6352 188.507 39.3872C188.295 38.8052 188.136 38.1872 188.03 37.5692C187.942 36.9332 187.889 36.2972 187.906 35.6622C187.906 35.3972 187.924 35.1322 187.995 34.8672C188.065 34.8672 187.995 36.0862 188.207 37.5862C188.419 39.0872 188.878 40.0942 188.825 40.1112H188.843Z" fill="#263238"/>
<path d="M208.874 50.0351H206.436C205.553 50.0351 204.67 49.9641 203.786 49.8761C202.709 49.7521 201.631 49.5581 200.572 49.3281C199.512 49.0811 198.47 48.7811 197.463 48.4281C196.632 48.1281 195.82 47.774 195.025 47.386C194.672 47.227 194.371 47.0511 194.124 46.9091C193.877 46.7681 193.63 46.6441 193.453 46.5381L193.029 46.291L192.888 46.1851C192.888 46.1851 192.941 46.1851 193.047 46.2561L193.488 46.468C193.665 46.574 193.895 46.6971 194.177 46.8211C194.46 46.9451 194.742 47.1031 195.078 47.2621C195.767 47.5801 196.579 47.9331 197.516 48.2691C198.54 48.6221 199.565 48.9221 200.625 49.1691C201.684 49.4171 202.744 49.5931 203.804 49.7341C204.793 49.8581 205.676 49.911 206.436 49.929H208.874V50.0521V50.0351Z" fill="#263238"/>
<path d="M237.33 63.0301H237.242L236.977 63.1361L235.97 63.5071C235.529 63.6661 234.999 63.8421 234.363 64.0371C233.727 64.2311 233.003 64.4601 232.208 64.6551L230.954 64.9901L229.576 65.3081C228.675 65.5371 227.598 65.7141 226.52 65.9261C224.171 66.3321 221.786 66.5971 219.401 66.7561C217.017 66.8791 214.632 66.8791 212.248 66.7561C211.152 66.6851 210.11 66.6321 209.139 66.5261L207.726 66.3851L206.418 66.2081C205.588 66.1031 204.864 65.9611 204.21 65.8551C203.557 65.7491 203.009 65.6261 202.55 65.5201L201.508 65.2901L201.243 65.2201H201.155H201.261L201.525 65.2731L202.585 65.4671C203.045 65.5551 203.592 65.6611 204.246 65.7491C204.899 65.8381 205.641 65.9971 206.454 66.0851L207.761 66.2441C208.202 66.2971 208.662 66.3321 209.156 66.3851C210.128 66.4911 211.17 66.5441 212.265 66.5971C214.455 66.6851 216.875 66.6851 219.401 66.5441C221.927 66.4031 224.33 66.0851 226.485 65.7321C227.562 65.5371 228.587 65.3611 229.541 65.1311C230.017 65.0251 230.441 64.9371 230.918 64.8311L232.173 64.5131C232.985 64.3191 233.692 64.0901 234.328 63.9131C234.963 63.7361 235.511 63.5601 235.953 63.4191L236.977 63.0831L237.242 62.9951L237.33 63.0301Z" fill="#263238"/>
<path d="M199.971 38.9462C199.971 41.3472 198.063 43.3071 195.679 43.3781C193.506 41.5061 192.252 39.1052 192.252 36.1212C192.252 36.0682 192.252 35.9972 192.252 35.9442C193.064 35.0612 194.23 34.5142 195.52 34.5142C197.975 34.5142 199.953 36.5092 199.953 38.9462H199.971Z" fill="#FCB813"/>
<path d="M238.549 36.1212C238.549 39.0692 237.331 41.4532 235.229 43.3072C233.18 42.9192 231.643 41.1182 231.643 38.9462C231.643 36.4922 233.639 34.5142 236.077 34.5142C236.977 34.5142 237.808 34.7792 238.514 35.2382C238.532 35.5382 238.549 35.8212 238.549 36.1212Z" fill="#FCB813"/>
<path d="M209.757 38.3101L214.562 41.2411L219.349 38.3281L214.88 43.4311L214.562 43.8021L214.244 43.4311L209.757 38.3101Z" fill="white"/>
<path d="M211.029 9.00006C211.029 9.00006 197.145 -2.17694 204.564 -19.7109L211.029 9.00006Z" fill="#FCB813"/>
<path d="M213.272 6.31595V-16.7271C213.272 -16.7271 220.391 -5.00205 213.272 6.31595Z" fill="#FCB813"/>
<path d="M217.494 6.31613L222.616 -5.33789C222.616 -5.33789 226.255 4.02013 217.494 6.31613Z" fill="#FCB813"/>
</g>
</svg>
