<svg width="246" height="94" viewBox="0 0 246 94" fill="none" xmlns="http://www.w3.org/2000/svg">
<path d="M234.565 84.1139H108.232C101.961 84.1139 96.892 79.0289 96.874 72.7599V19.7359L82.937 7.37688H234.547C240.818 7.32388 245.94 12.3729 245.976 18.6419C245.976 18.6769 245.976 18.7119 245.976 18.7479V72.7599C245.976 79.0289 240.871 84.1139 234.583 84.1139C234.583 84.1139 234.547 84.1139 234.529 84.1139H234.565Z" fill="#EBEBEB"/>
<path d="M225.892 92.713C221.405 93.137 216.901 93.2779 212.414 93.1369C207.927 93.2779 203.423 93.137 198.954 92.713C203.423 92.289 207.927 92.1479 212.414 92.2889C216.918 92.1479 221.423 92.289 225.892 92.713Z" fill="#E0E0E0"/>
<path d="M231.473 93.773C231.367 93.773 231.261 93.72 231.173 93.649L228.559 90.93C228.4 90.771 228.4 90.506 228.559 90.347C228.7 90.188 228.965 90.188 229.124 90.329C229.124 90.329 229.124 90.329 229.142 90.347L231.456 92.766L236.525 87.61C236.667 87.451 236.932 87.451 237.091 87.593C237.091 87.593 237.091 87.593 237.108 87.61C237.267 87.769 237.267 88.034 237.108 88.193L231.738 93.667C231.738 93.667 231.579 93.79 231.473 93.79V93.773Z" fill="#54BAE2"/>
<path d="M235.183 93.6839H234.706C234.476 93.6839 234.3 93.5079 234.3 93.2779C234.317 93.0489 234.512 92.8719 234.724 92.8719H235.024L240.27 87.5399C240.429 87.3809 240.694 87.3629 240.853 87.5399C241.012 87.6989 241.012 87.9629 240.853 88.1219L235.483 93.5779C235.483 93.5779 235.307 93.7199 235.183 93.7019V93.6839Z" fill="#54BAE2"/>
<path d="M232.94 22.579C232.94 22.809 205.366 23.003 171.328 23.003C137.289 23.003 109.733 22.809 109.733 22.579C109.733 22.35 137.289 22.156 171.328 22.156C205.366 22.156 232.94 22.332 232.94 22.579Z" fill="white"/>
<path d="M232.94 31.602C232.94 31.849 205.366 32.026 171.328 32.026C137.289 32.026 109.733 31.849 109.733 31.602C109.733 31.355 137.289 31.178 171.328 31.178C205.366 31.178 232.94 31.373 232.94 31.602Z" fill="white"/>
<path d="M232.94 40.6601C232.94 40.8901 205.366 41.0841 171.328 41.0841C137.289 41.0841 109.733 40.8901 109.733 40.6601C109.733 40.4311 137.289 40.2361 171.328 40.2361C205.366 40.2361 232.94 40.4311 232.94 40.6601Z" fill="white"/>
<path d="M232.94 49.7179C232.94 49.9479 205.366 50.1419 171.328 50.1419C137.289 50.1419 109.733 49.9479 109.733 49.7179C109.733 49.4889 137.289 49.2939 171.328 49.2939C205.366 49.2939 232.94 49.4709 232.94 49.7179Z" fill="white"/>
<path d="M232.94 58.7409C232.94 58.9879 205.366 59.1649 171.328 59.1649C137.289 59.1649 109.733 58.9879 109.733 58.7409C109.733 58.4939 137.289 58.3169 171.328 58.3169C205.366 58.3169 232.94 58.5109 232.94 58.7409Z" fill="white"/>
<path d="M232.94 69.6181C232.94 69.8651 205.366 70.0411 171.328 70.0411C137.289 70.0411 109.733 69.8651 109.733 69.6181C109.733 69.3701 137.289 69.1941 171.328 69.1941C205.366 69.1941 232.94 69.3881 232.94 69.6181Z" fill="white"/>
<path d="M37.6821 74.3141C58.1005 74.3141 74.6532 57.7681 74.6532 37.3581C74.6532 16.9481 58.1005 0.4021 37.6821 0.4021C17.2637 0.4021 0.711426 16.9481 0.711426 37.3581C0.711426 57.7681 17.2637 74.3141 37.6821 74.3141Z" fill="#E0E0E0"/>
<mask id="mask0_63_548" style="mask-type:luminance" maskUnits="userSpaceOnUse" x="0" y="0" width="75" height="75">
<path d="M37.6821 74.3141C58.1005 74.3141 74.6532 57.7681 74.6532 37.3581C74.6532 16.9481 58.1005 0.4021 37.6821 0.4021C17.2637 0.4021 0.711426 16.9481 0.711426 37.3581C0.711426 57.7681 17.2637 74.3141 37.6821 74.3141Z" fill="white"/>
</mask>
<g mask="url(#mask0_63_548)">
<path d="M15.2667 76.1329H65.3264L58.4374 62.2719C58.0135 61.4069 57.2717 60.7179 56.3885 60.3299C53.5623 59.1289 47.3091 56.5159 46.6732 56.3919C32.595 53.9199 13.2354 59.5179 13.2354 59.5179L15.2667 72.1069V76.0979V76.1329Z" fill="#54BAE2"/>
<path d="M20.7777 76.1331L20.6011 69.2821L13.1999 59.5181C7.10576 61.7071 4.19115 68.8941 2.83105 76.1331H20.7777Z" fill="#54BAE2"/>
<path d="M58.1547 75.586C58.1723 75.762 58.2077 75.957 58.2254 76.133H58.5433C58.508 75.939 58.4726 75.727 58.4373 75.533C58.2607 74.562 58.1017 73.767 57.9957 73.237C57.9604 72.955 57.8721 72.672 57.7661 72.407C57.7661 72.69 57.7661 72.99 57.8367 73.273C57.9251 73.908 58.031 74.685 58.1547 75.603V75.586Z" fill="#263238"/>
<path d="M30.6345 13.044C28.7798 11.879 28.3383 9.16002 29.3451 7.18202C30.4756 5.25802 32.4187 3.98601 34.6267 3.70401C37.8415 3.22701 41.0739 4.30402 43.3526 6.61702C44.5361 7.85302 45.5076 9.44201 47.1327 10.007C48.5635 10.502 50.1356 10.043 51.6194 10.255C53.6331 10.608 55.3818 11.879 56.3709 13.68C57.3248 15.463 57.89 17.423 58.049 19.436C58.261 21.273 58.4023 23.303 59.6922 24.645C60.9812 25.987 62.9062 26.234 64.4432 27.17C67.3932 29.112 68.2592 33.068 66.3862 36.052C65.7682 36.952 64.9203 37.764 64.8143 38.841C64.7083 39.918 65.3792 40.713 65.6802 41.649C66.2802 43.997 64.8492 46.399 62.5002 46.999C62.3062 47.052 62.1122 47.087 61.9172 47.105C60.6452 47.176 59.2682 46.681 58.102 47.246C56.9362 47.811 56.5299 49.188 55.8057 50.248C54.2689 52.331 51.4603 53.055 49.111 51.978C48.1748 51.519 47.274 50.76 46.2318 50.813C45.1896 50.866 44.3594 51.784 43.3349 51.978C41.9924 52.243 40.703 51.237 39.9081 50.124C39.1132 49.012 38.548 47.688 37.5235 46.787C36.181 45.586 34.2909 45.322 32.5952 44.704C25.3176 42.179 21.4669 34.233 23.9928 26.958C24.2048 26.358 24.4521 25.775 24.7347 25.228" fill="#263238"/>
<path d="M50.1885 37.199C50.5947 36.758 51.0893 36.422 51.6546 36.211H51.5486C51.6546 36.193 51.7606 36.175 51.8665 36.158C52.2552 36.034 52.6791 36.087 53.0324 36.299C53.6859 36.546 54.2159 37.005 54.5515 37.623C55.0637 38.736 54.9224 40.042 54.1629 41.013C53.4386 42.196 51.9019 42.567 50.7184 41.843C50.1178 41.472 49.6939 40.854 49.5526 40.148C49.2346 39.124 49.4819 38.012 50.1885 37.199Z" fill="#455A64"/>
<path d="M25.7946 56.8521L23.8339 20.8141C23.7456 19.2241 24.8938 17.8471 26.4659 17.6351L42.6108 13.0801C47.7863 12.3381 51.4251 18.6771 51.902 23.8861C52.4319 29.6601 52.8559 36.7581 52.2906 41.1011C51.1601 49.8241 44.5185 51.1311 44.5185 51.1311C44.5185 51.1311 44.6775 58.9701 44.7304 62.1311L44.1475 73.0081L25.777 56.8521H25.7946Z" fill="#AB6E65"/>
<path d="M48.5455 31.4431C48.5632 32.0431 48.1039 32.5561 47.5033 32.5911C46.9204 32.6611 46.3905 32.2381 46.3198 31.6551C46.3198 31.6551 46.3198 31.6371 46.3198 31.6201C46.3022 31.0191 46.7614 30.5071 47.362 30.4541C47.9449 30.3841 48.4749 30.8251 48.5455 31.4081C48.5455 31.4081 48.5455 31.4081 48.5455 31.4251V31.4431Z" fill="#263238"/>
<path d="M50.4708 27.6121C50.3472 27.7531 49.464 27.1521 48.2628 27.1881C47.0617 27.2231 46.1961 27.8411 46.0548 27.7171C45.9135 27.5941 46.1255 27.3821 46.4964 27.0991C47.0087 26.7291 47.6269 26.5171 48.2452 26.4991C48.8634 26.4811 49.4816 26.6581 49.9939 27.0111C50.3825 27.2761 50.5238 27.5411 50.4532 27.6121H50.4708Z" fill="#263238"/>
<path d="M36.958 31.4431C36.9756 32.0441 36.5164 32.5561 35.9158 32.5911C35.3329 32.6621 34.803 32.2381 34.75 31.6551C34.75 31.6551 34.75 31.6551 34.75 31.6371C34.7323 31.0371 35.1916 30.5251 35.7922 30.4721C36.3751 30.4011 36.905 30.8251 36.958 31.4081C36.958 31.4081 36.958 31.4261 36.958 31.4431Z" fill="#263238"/>
<path d="M38.6715 28.1771C38.5302 28.3181 37.6646 27.7181 36.4635 27.7531C35.2623 27.7881 34.3968 28.4241 34.2555 28.2831C34.1142 28.1411 34.3261 27.9471 34.6971 27.6651C35.2093 27.2941 35.8099 27.0821 36.4458 27.0641C37.0641 27.0471 37.6823 27.2231 38.1946 27.5761C38.5832 27.8411 38.7245 28.1061 38.6538 28.1771H38.6715Z" fill="#263238"/>
<path d="M43.2814 36.9519C43.8997 36.7399 44.5533 36.5989 45.2245 36.5459C45.5248 36.5109 45.8251 36.4399 45.8604 36.2279C45.8604 35.9109 45.7897 35.5929 45.6308 35.3279C45.3128 34.5859 44.9948 33.8269 44.6592 33.0149C43.3168 29.7309 42.3099 27.0289 42.4512 26.9759C42.5925 26.9229 43.7937 29.5359 45.1362 32.8379C45.4541 33.6509 45.7721 34.4269 46.0724 35.1689C46.2843 35.5399 46.3373 35.9639 46.2667 36.3699C46.196 36.5989 46.0017 36.7579 45.7721 36.8289C45.6131 36.8819 45.4365 36.9169 45.2598 36.9169C44.6063 37.0049 43.935 37.0229 43.2814 36.9519Z" fill="#263238"/>
<path d="M44.5185 51.1309C40.4205 51.3069 36.3578 50.3539 32.772 48.3589C32.772 48.3589 35.7749 54.2209 44.4479 53.1969L44.5185 51.1479V51.1309Z" fill="#7C4B43"/>
<path d="M43.1757 39.7949C42.6104 38.9999 41.6743 38.5409 40.7027 38.5769C40.0668 38.5939 39.4839 38.9469 39.1483 39.4769C38.8127 40.0949 38.848 40.8369 39.2366 41.4189C39.6959 42.0199 40.4731 42.2849 41.1973 42.0729C41.8686 41.8429 42.4515 41.4369 42.9284 40.9249C43.0874 40.8009 43.211 40.6419 43.2994 40.4659C43.3877 40.2719 43.37 40.0419 43.2464 39.8659" fill="#7C4B43"/>
<path d="M39.7842 37.8701C39.9785 37.8701 40.0138 39.1591 41.162 40.0771C42.3102 40.9961 43.688 40.8191 43.7057 40.9781C43.7234 41.1371 43.4053 41.2431 42.8224 41.2781C42.0629 41.3131 41.3211 41.0661 40.7028 40.6071C40.1199 40.1661 39.7313 39.4951 39.6253 38.7711C39.5547 38.1881 39.6782 37.8881 39.7842 37.8881V37.8701Z" fill="#263238"/>
<path d="M39.0599 23.2151C38.954 23.5511 37.7528 23.4271 36.3397 23.6391C34.9266 23.8511 33.8137 24.2571 33.6018 23.9741C33.5135 23.8331 33.7077 23.5151 34.167 23.1971C34.7676 22.7911 35.4565 22.5441 36.1631 22.4561C36.8873 22.3501 37.6115 22.4031 38.3004 22.6501C38.8303 22.8091 39.0953 23.0561 39.0423 23.2151H39.0599Z" fill="#263238"/>
<path d="M49.9588 23.4979C49.7468 23.7799 48.9166 23.4979 47.9274 23.5329C46.9382 23.5679 46.0904 23.7619 45.8961 23.4979C45.8077 23.3559 45.9314 23.0909 46.2846 22.8089C47.2738 22.1379 48.5633 22.1379 49.5525 22.8089C49.8881 23.0739 50.0118 23.3559 49.9411 23.4979H49.9588Z" fill="#263238"/>
<path d="M57.7663 22.0319C57.413 20.7079 56.6005 19.5419 55.47 18.7479C54.8517 18.3419 54.1098 18.0949 53.5269 17.6179C52.2728 16.6109 51.9725 14.8459 51.1953 13.4149C50.1708 11.5609 48.2984 10.3249 46.1964 10.0959C44.4653 9.91889 42.6989 10.4309 41.0208 10.0079C39.7843 9.68989 38.6892 8.87789 37.435 8.64789C34.9797 8.17089 32.7011 9.93689 30.917 11.6849C30.917 13.4329 32.3125 14.6159 33.6549 15.7289C35.0327 16.8589 36.8344 17.3349 38.5832 17.0349C39.9256 16.7879 41.3918 16.1169 42.5399 16.8229C43.6881 17.5299 43.8117 19.4009 44.8892 20.3369C46.4437 21.6789 48.8813 20.4249 50.8597 21.0079C52.3788 21.4489 53.315 22.8969 54.3218 24.1159C55.3287 25.3339 56.8301 26.4989 58.3492 26.0399C58.3139 24.6809 58.1019 23.3209 57.7486 21.9969L57.7663 22.0319Z" fill="#263238"/>
<path d="M39.3606 14.651C38.2654 14.334 36.0221 13.627 35.4215 12.674C34.2204 10.573 31.9771 9.30104 29.5571 9.31904C27.1018 9.51304 25.0704 11.314 24.5758 13.716C21.6613 13.821 19.0293 15.517 17.7222 18.112C17.5456 18.448 17.4043 18.783 17.2806 19.136C16.4151 20.69 16.2738 22.562 16.9097 24.239C17.2983 25.228 17.9342 26.34 17.4396 27.276C16.945 28.212 15.6025 28.247 14.578 28.6C12.7586 29.289 11.6811 31.178 12.0344 33.085C12.2817 33.721 12.3877 34.392 12.3524 35.063C12.1051 35.716 11.6988 36.317 11.1689 36.776C9.3848 38.894 9.6674 42.055 11.7871 43.838C12.4583 44.403 13.2532 44.774 14.1011 44.933C14.896 44.968 15.6732 45.145 16.3974 45.463C17.1746 45.94 17.5102 46.875 18.0578 47.599C19.1707 49.012 21.0254 49.595 22.7388 49.065C23.0744 48.959 23.3924 48.782 23.675 48.588C24.3286 49.436 25.3707 49.877 26.4306 49.771L26.1126 31.426C26.3246 31.885 26.7309 32.202 27.2254 32.291C30.1577 32.962 30.5993 26.905 29.9457 25.263C31.0585 24.363 32.0301 23.303 32.8779 22.156C33.8141 20.319 34.2911 18.271 34.2204 16.205C35.2979 16.276 39.8199 14.793 39.343 14.651H39.3606Z" fill="#263238"/>
<path d="M26.9421 32.926C26.8538 31.055 24.5751 30.666 22.95 31.602C22.0668 32.114 21.3779 33.138 21.4839 35.116C21.6959 40.395 26.9598 39.089 26.9598 38.93C26.9598 38.771 27.0481 35.098 26.9598 32.926H26.9421Z" fill="#AB6E65"/>
<path d="M25.2469 37.0051C25.2469 37.0051 25.1585 37.0761 25.0172 37.1461C24.7876 37.2351 24.5403 37.2351 24.3283 37.1461C23.6218 36.7401 23.1802 35.9811 23.1978 35.1511C23.1625 34.6921 23.2331 34.2511 23.4098 33.8271C23.4981 33.4911 23.7454 33.2091 24.0634 33.0851C24.2753 33.0151 24.505 33.1211 24.611 33.3151C24.6993 33.4561 24.6639 33.5621 24.6993 33.5801C24.7346 33.5971 24.8053 33.4911 24.7523 33.2801C24.7169 33.1561 24.6286 33.0321 24.5226 32.9621C24.3813 32.8561 24.187 32.8201 24.0104 32.8561C23.5688 32.9621 23.2332 33.2801 23.0918 33.7031C22.8975 34.1621 22.8092 34.6741 22.8269 35.1691C22.9152 36.2281 23.4804 37.1991 24.293 37.3761C24.5756 37.4471 24.8936 37.3761 25.1232 37.1991C25.2468 37.1461 25.2822 37.0231 25.2469 37.0231V37.0051Z" fill="#7C4B43"/>
<path d="M32.1009 13.2211C31.6946 13.4331 31.3413 13.7331 31.0587 14.1041C30.4405 15.2341 30.3168 16.5411 30.6701 17.7771V17.9001H30.5465C29.0097 18.3061 27.7555 19.4191 27.155 20.9021C26.996 21.3081 26.89 21.7491 26.8723 22.1911C26.8723 22.6681 26.943 23.1271 27.049 23.5861C27.1549 24.0631 27.2256 24.5571 27.2433 25.0511C27.2786 25.5991 27.1373 26.1461 26.8193 26.6051C26.1305 27.4701 25.2296 28.1591 24.2051 28.5651C23.3042 28.9541 22.474 29.5011 21.7498 30.1721C20.5663 31.3371 19.8597 32.9091 19.7714 34.5691C19.7361 35.6991 20.001 36.8291 20.5133 37.8351C20.8666 38.5771 21.1669 38.8941 21.1315 38.9121C21.0962 38.9301 21.0432 38.8241 20.9019 38.6651C20.7076 38.4181 20.5309 38.1531 20.372 37.8881C18.9235 35.2571 19.4005 31.9911 21.5378 29.8891C22.2797 29.1831 23.1276 28.6181 24.0638 28.1941C25.0353 27.8061 25.8831 27.1701 26.5367 26.3401C27.1196 25.5461 26.8547 24.5041 26.7134 23.5511C26.6074 23.0741 26.5544 22.5791 26.5544 22.0851C26.572 21.6081 26.678 21.1321 26.8547 20.6901C27.5082 19.1191 28.8684 17.9531 30.5288 17.5471L30.4228 17.7241C30.1225 16.0991 30.3521 14.6691 30.9527 13.9271C31.1647 13.6451 31.4473 13.4151 31.7829 13.2561C31.8889 13.2211 31.9949 13.2031 32.1185 13.2031L32.1009 13.2211Z" fill="#455A64"/>
<path d="M23.2861 38.9829C23.6924 38.5409 24.187 38.2059 24.7523 37.9939H24.6463C24.7522 37.9759 24.8582 37.9589 24.9642 37.9409C25.3528 37.8349 25.7768 37.8879 26.1301 38.0819C26.7836 38.3119 27.3135 38.7879 27.6492 39.4059C28.1614 40.5189 28.0201 41.8259 27.2605 42.7969C26.5363 43.9799 24.9819 44.3499 23.8161 43.6269C23.2155 43.2559 22.7915 42.6379 22.6679 41.9309C22.3499 40.9069 22.5972 39.7949 23.3038 38.9829H23.2861Z" fill="#455A64"/>
</g>
</svg>
