<svg width="252" height="75" viewBox="0 0 252 75" fill="none" xmlns="http://www.w3.org/2000/svg">
<path d="M12.2905 74.1769H138.606C144.859 74.1769 149.946 69.1269 149.964 62.8589V26.1849L163.901 13.825H12.3082C6.0374 13.825 0.950195 18.9099 0.950195 25.1779V62.8229C0.950195 69.0739 6.0021 74.1589 12.2728 74.1769H12.3082H12.2905Z" fill="#EBEBEB"/>
<path d="M132.936 31.694C132.936 31.941 106.935 32.118 74.839 32.118C42.7436 32.118 16.7422 31.941 16.7422 31.694C16.7422 31.447 42.7436 31.27 74.839 31.27C106.935 31.27 132.936 31.517 132.936 31.694Z" fill="white"/>
<path d="M132.936 41.6C132.936 41.829 106.935 42.023 74.839 42.023C42.7436 42.023 16.7422 41.829 16.7422 41.6C16.7422 41.37 42.7436 41.176 74.839 41.176C106.935 41.176 132.936 41.317 132.936 41.6Z" fill="white"/>
<path d="M132.936 51.364C132.936 51.593 106.935 51.7869 74.839 51.7869C42.7436 51.7869 16.7422 51.593 16.7422 51.364C16.7422 51.134 42.7436 50.9399 74.839 50.9399C106.935 50.9399 132.936 51.117 132.936 51.364Z" fill="white"/>
<path d="M132.936 61.163C132.936 61.393 106.935 61.587 74.839 61.587C42.7436 61.587 16.7422 61.393 16.7422 61.163C16.7422 60.934 42.7436 60.74 74.839 60.74C106.935 60.74 132.936 60.916 132.936 61.163Z" fill="white"/>
<path d="M214.862 74.018C235.309 74.018 251.885 57.448 251.885 37.009C251.885 16.569 235.309 0 214.862 0C194.414 0 177.838 16.569 177.838 37.009C177.838 57.448 194.414 74.018 214.862 74.018Z" fill="#0386B7"/>
<mask id="mask0_63_551" style="mask-type:luminance" maskUnits="userSpaceOnUse" x="177" y="0" width="75" height="75">
<path d="M214.862 74.018C235.309 74.018 251.885 57.448 251.885 37.009C251.885 16.569 235.309 0 214.862 0C194.414 0 177.838 16.569 177.838 37.009C177.838 57.448 194.414 74.018 214.862 74.018Z" fill="white"/>
</mask>
<g mask="url(#mask0_63_551)">
<path d="M242.312 74.601C243.742 66.461 243.884 60.034 243.884 59.91C243.884 59.91 240.739 52.83 216.398 53.094C192.057 53.359 188.913 59.91 188.913 59.91C188.913 59.91 188.984 66.39 190.397 74.601H242.294H242.312Z" fill="white"/>
<path d="M223.676 74.601C222.387 71.493 219.437 69.198 215.851 68.933C211.788 68.633 208.149 71.034 206.683 74.601H223.676Z" fill="#263238"/>
<path d="M220.885 74.6011C219.79 72.8351 217.9 71.5991 215.674 71.4221C213.095 71.2281 210.746 72.5351 209.474 74.6011H220.885Z" fill="white"/>
<path d="M188.808 59.8751H188.949L189.355 60.0161L190.91 60.5641L192.022 60.97L193.383 61.394C194.354 61.676 195.432 62.0651 196.686 62.2941L198.629 62.7891C199.3 62.9651 200.007 63.089 200.748 63.248C202.197 63.583 203.787 63.8131 205.447 64.0781C212.672 65.1191 220.02 65.1191 227.244 64.0781C228.905 63.8131 230.495 63.583 231.943 63.248C232.685 63.089 233.391 62.9651 234.063 62.7891L236.006 62.2941C237.242 62.0121 238.337 61.623 239.309 61.394C239.786 61.252 240.21 61.129 240.651 60.988L241.764 60.5811L243.301 60.0341L243.707 59.8931L243.849 59.8401C243.849 59.8401 243.796 59.84 243.707 59.91L243.301 60.069L241.764 60.634L240.651 61.058C240.245 61.199 239.75 61.3231 239.309 61.5001C238.337 61.7821 237.26 62.1711 236.006 62.4711L234.063 62.983C233.391 63.159 232.685 63.2831 231.943 63.4601C230.477 63.7951 228.905 64.0251 227.244 64.3071C220.002 65.3661 212.636 65.3661 205.376 64.3071C203.698 64.0421 202.126 63.7951 200.66 63.4601C199.936 63.3011 199.212 63.1771 198.54 63.0001L196.597 62.488C195.361 62.188 194.266 61.8001 193.294 61.5001L191.952 61.076L190.839 60.652L189.302 60.069L188.896 59.91H188.772L188.808 59.8751Z" fill="#263238"/>
<g opacity="0.3">
<path d="M188.913 59.91C188.913 59.91 192.057 53.377 216.398 53.094C240.739 52.812 243.884 59.91 243.884 59.91C243.884 59.91 219.348 72.005 188.913 59.91Z" fill="black"/>
</g>
<path d="M190.114 67.291C190.22 68.756 190.415 70.469 190.697 72.376C190.803 73.082 190.927 73.824 191.051 74.583H191.227C191.086 73.824 190.962 73.064 190.856 72.34C190.591 70.434 190.362 68.703 190.22 67.255C190.15 66.531 190.097 65.86 190.044 65.295C189.991 64.73 190.009 64.183 189.938 63.812C189.867 63.441 189.867 63.141 189.867 62.912V63.83C189.885 64.236 189.92 64.73 189.956 65.313C189.991 65.896 190.044 66.549 190.114 67.273V67.291Z" fill="#263238"/>
<path d="M205.553 74.6011C205.677 74.2831 205.8 73.965 205.942 73.647C206.313 72.835 206.789 72.0761 207.372 71.4051C207.779 70.9281 208.044 70.6811 208.026 70.6631C208.026 70.6631 207.955 70.7161 207.832 70.8221C207.655 70.9811 207.478 71.158 207.319 71.334C206.719 72.005 206.207 72.7651 205.818 73.5771C205.659 73.9121 205.518 74.2481 205.394 74.5831H205.553V74.6011Z" fill="#263238"/>
<path d="M214.544 10.488C214.544 10.488 191.28 10.206 187.641 30.37C184.003 50.534 203.627 50.887 209.297 51.258C211.876 51.435 217.352 51.452 222.192 51.364C232.914 51.188 240.492 49.104 243.089 39.163C243.389 37.998 243.583 36.797 243.672 35.596C244.29 24.702 236.906 9.95801 214.544 10.506V10.488ZM192.252 35.896C192.252 35.896 192.252 35.773 192.252 35.72C193.064 34.837 194.23 34.29 195.52 34.29C197.975 34.29 199.953 36.285 199.953 38.722C199.953 41.158 198.046 43.083 195.661 43.154C193.488 41.282 192.234 38.881 192.234 35.896H192.252ZM235.211 43.083C233.162 42.694 231.625 40.893 231.625 38.722C231.625 36.267 233.621 34.29 236.058 34.29C236.959 34.29 237.79 34.555 238.496 35.014C238.514 35.314 238.531 35.596 238.531 35.896C238.531 38.845 237.313 41.229 235.211 43.083Z" fill="white"/>
<path d="M231.625 38.721C231.625 40.876 233.162 42.677 235.211 43.083C231.166 46.649 223.8 48.256 215.392 48.256C206.983 48.256 199.741 46.667 195.661 43.153C198.045 43.083 199.953 41.123 199.953 38.721C199.953 36.32 197.957 34.289 195.52 34.289C194.23 34.289 193.064 34.837 192.252 35.72C192.393 27.191 202.709 20.323 215.392 20.323C228.074 20.323 237.825 26.821 238.496 35.031C237.789 34.572 236.959 34.307 236.058 34.307C233.603 34.307 231.625 36.302 231.625 38.739V38.721Z" fill="#263238"/>
<path d="M206.454 31.518C206.242 32.63 205.146 33.372 204.034 33.142C202.921 32.93 202.179 31.835 202.408 30.723C202.638 29.611 203.716 28.869 204.828 29.099C205.941 29.328 206.665 30.405 206.454 31.518Z" fill="white"/>
<path d="M226.449 31.147C226.237 32.259 225.142 33.001 224.029 32.771C222.917 32.559 222.175 31.465 222.404 30.352C222.616 29.24 223.711 28.498 224.824 28.728C225.937 28.94 226.661 30.034 226.449 31.147Z" fill="white"/>
<path d="M211.612 11.989H211.276C211.064 11.989 210.746 11.9889 210.375 12.0599C209.227 12.1829 208.079 12.3599 206.948 12.6249C205.27 13.0129 203.645 13.5959 202.073 14.3199C200.165 15.2199 198.364 16.35 196.739 17.692C193.789 20.164 191.439 23.2539 189.867 26.7679C189.39 27.8269 188.984 28.9219 188.666 30.0339C188.542 30.4399 188.472 30.7409 188.419 30.9349L188.348 31.1639L188.401 30.9169C188.454 30.7049 188.507 30.387 188.613 30.017C188.896 28.887 189.267 27.792 189.726 26.715C190.415 25.108 191.263 23.5899 192.27 22.1769C195.785 17.2679 200.996 13.8249 206.878 12.5189C208.026 12.2709 209.192 12.095 210.358 12.007H211.594V11.9709L211.612 11.989Z" fill="#263238"/>
<path d="M188.843 39.8871C188.701 39.6581 188.578 39.4101 188.507 39.1631C188.295 38.5811 188.136 37.963 188.03 37.345C187.942 36.709 187.889 36.073 187.906 35.438C187.906 35.173 187.924 34.9081 187.995 34.6431C188.065 34.6431 187.995 35.8611 188.207 37.3621C188.419 38.8631 188.878 39.8701 188.825 39.8871H188.843Z" fill="#263238"/>
<path d="M208.874 49.8099H206.436C205.553 49.8099 204.67 49.7399 203.786 49.6509C202.709 49.5279 201.631 49.3329 200.572 49.1039C199.512 48.8569 198.47 48.5569 197.463 48.2029C196.632 47.9029 195.82 47.5499 195.025 47.1619C194.672 47.0029 194.371 46.8259 194.124 46.6849C193.877 46.5439 193.63 46.42 193.453 46.314L193.029 46.067L192.888 45.9609C192.888 45.9609 192.941 45.9609 193.047 46.0319L193.488 46.2429C193.665 46.3489 193.895 46.4729 194.177 46.5969C194.46 46.7199 194.742 46.879 195.078 47.038C195.767 47.356 196.579 47.7089 197.516 48.0449C198.54 48.3979 199.565 48.6979 200.625 48.9449C201.684 49.1919 202.744 49.3689 203.804 49.5099C204.793 49.6339 205.676 49.6869 206.436 49.7039H208.874V49.8279V49.8099Z" fill="#263238"/>
<path d="M237.33 62.806H237.242L236.977 62.912L235.97 63.283C235.529 63.441 234.999 63.618 234.363 63.812C233.727 64.006 233.003 64.236 232.208 64.43L230.954 64.766L229.576 65.084C228.675 65.313 227.598 65.49 226.52 65.702C224.171 66.108 221.786 66.373 219.401 66.531C217.017 66.655 214.632 66.655 212.248 66.531C211.152 66.461 210.11 66.408 209.139 66.302L207.726 66.161L206.418 65.984C205.588 65.878 204.864 65.737 204.21 65.631C203.557 65.525 203.009 65.401 202.55 65.295L201.508 65.066L201.243 64.995H201.155H201.261L201.525 65.048L202.585 65.242C203.045 65.331 203.592 65.437 204.246 65.525C204.899 65.613 205.641 65.772 206.454 65.86L207.761 66.019C208.202 66.072 208.662 66.108 209.156 66.161C210.128 66.267 211.17 66.32 212.265 66.373C214.455 66.461 216.875 66.461 219.401 66.32C221.927 66.178 224.33 65.86 226.485 65.507C227.562 65.313 228.587 65.137 229.541 64.907C230.017 64.801 230.441 64.713 230.918 64.607L232.173 64.289C232.985 64.095 233.692 63.865 234.328 63.689C234.963 63.512 235.511 63.336 235.953 63.194L236.977 62.859L237.242 62.771L237.33 62.806Z" fill="#263238"/>
<path d="M199.971 38.722C199.971 41.123 198.063 43.0831 195.679 43.1541C193.506 41.2821 192.252 38.881 192.252 35.897C192.252 35.844 192.252 35.773 192.252 35.72C193.064 34.837 194.23 34.29 195.52 34.29C197.975 34.29 199.953 36.285 199.953 38.722H199.971Z" fill="#FCB813"/>
<path d="M238.549 35.897C238.549 38.846 237.331 41.2291 235.229 43.0831C233.18 42.6951 231.643 40.894 231.643 38.722C231.643 36.268 233.639 34.29 236.077 34.29C236.977 34.29 237.808 34.555 238.514 35.014C238.532 35.314 238.549 35.597 238.549 35.897Z" fill="#FCB813"/>
<path d="M209.757 38.0859L214.562 41.0349L219.349 38.1039L214.88 43.2239L214.562 43.5779L214.244 43.2239L209.757 38.0859Z" fill="white"/>
<path d="M211.029 8.79303C211.029 8.79303 197.145 -2.38399 204.564 -19.917L211.029 8.79303Z" fill="#FCB813"/>
<path d="M213.272 6.09106V-16.9509C213.272 -16.9509 220.391 -5.22694 213.272 6.09106Z" fill="#FCB813"/>
<path d="M217.494 6.091L222.616 -5.56201C222.616 -5.56201 226.255 3.796 217.494 6.091Z" fill="#FCB813"/>
</g>
</svg>
