<svg width="246" height="75" viewBox="0 0 246 75" fill="none" xmlns="http://www.w3.org/2000/svg">
<path d="M225.892 70.289C221.405 70.713 216.901 70.854 212.414 70.713C207.927 70.854 203.423 70.713 198.954 70.289C203.423 69.866 207.927 69.724 212.414 69.865C216.918 69.724 221.423 69.866 225.892 70.289Z" fill="#E0E0E0"/>
<path d="M231.474 71.349C231.35 71.349 231.209 71.313 231.12 71.225L228.506 68.506C228.33 68.365 228.294 68.1 228.436 67.923C228.577 67.747 228.842 67.711 229.018 67.853C229.054 67.87 229.071 67.906 229.089 67.941L231.403 70.36L236.473 65.204C236.614 65.045 236.879 65.045 237.038 65.186C237.038 65.186 237.038 65.186 237.056 65.204C237.215 65.363 237.215 65.628 237.056 65.787L231.756 71.243C231.756 71.243 231.562 71.366 231.456 71.366L231.474 71.349Z" fill="#54BAE2"/>
<path d="M235.183 71.225H234.706C234.476 71.225 234.3 71.031 234.3 70.801C234.3 70.589 234.476 70.413 234.688 70.395C234.688 70.395 234.706 70.395 234.724 70.395H235.024L240.27 65.063C240.429 64.904 240.694 64.886 240.853 65.063C241.012 65.221 241.012 65.486 240.853 65.645L235.483 71.101C235.483 71.101 235.307 71.243 235.183 71.225Z" fill="#54BAE2"/>
<path d="M234.565 59.4651H108.232C101.961 59.4651 96.874 54.3631 96.874 48.0941V20.2841L82.937 7.92505H234.547C240.818 7.92505 245.887 13.0101 245.905 19.2781V48.0941C245.905 54.3631 240.818 59.4481 234.547 59.4651H234.565Z" fill="#EBEBEB"/>
<path d="M232.94 23.109C232.94 23.357 205.366 23.533 171.328 23.533C137.289 23.533 109.733 23.357 109.733 23.109C109.733 22.862 137.289 22.686 171.328 22.686C205.366 22.686 232.94 22.88 232.94 23.109Z" fill="white"/>
<path d="M232.94 32.1501C232.94 32.3791 205.366 32.5741 171.328 32.5741C137.289 32.5741 109.733 32.3791 109.733 32.1501C109.733 31.9201 137.289 31.7261 171.328 31.7261C205.366 31.7261 232.94 31.9201 232.94 32.1501Z" fill="white"/>
<path d="M232.94 41.2079C232.94 41.4369 205.366 41.6319 171.328 41.6319C137.289 41.6319 109.733 41.4369 109.733 41.2079C109.733 40.9779 137.289 40.7839 171.328 40.7839C205.366 40.7839 232.94 40.9609 232.94 41.2079Z" fill="white"/>
<path d="M37.6821 74.6859C58.1005 74.6859 74.6532 58.1399 74.6532 37.7289C74.6532 17.3189 58.1005 0.772949 37.6821 0.772949C17.2637 0.772949 0.711426 17.3189 0.711426 37.7289C0.711426 58.1399 17.2637 74.6859 37.6821 74.6859Z" fill="#E0E0E0"/>
<mask id="mask0_63_550" style="mask-type:luminance" maskUnits="userSpaceOnUse" x="0" y="0" width="75" height="75">
<path d="M37.6821 74.6859C58.1005 74.6859 74.6532 58.1399 74.6532 37.7289C74.6532 17.3189 58.1005 0.772949 37.6821 0.772949C17.2637 0.772949 0.711426 17.3189 0.711426 37.7289C0.711426 58.1399 17.2637 74.6859 37.6821 74.6859Z" fill="white"/>
</mask>
<g mask="url(#mask0_63_550)">
<path d="M15.2667 76.4869H65.3264L58.4374 62.6259C58.0135 61.7609 57.2717 61.0719 56.3885 60.6839C53.5623 59.4829 47.3091 56.8699 46.6732 56.7459C32.595 54.2739 13.2354 59.8709 13.2354 59.8709L15.2667 72.4609V76.4509V76.4869Z" fill="#54BAE2"/>
<path d="M20.7777 76.4868L20.6011 69.6358L13.1999 59.8708C7.10576 62.0608 4.19115 69.2468 2.83105 76.4868H20.7777Z" fill="#54BAE2"/>
<path d="M58.1547 75.9389C58.1723 76.1159 58.2077 76.3099 58.2254 76.4869H58.5433C58.508 76.2919 58.4726 76.0799 58.4373 75.8859C58.2607 74.9149 58.1017 74.1209 57.9957 73.5909C57.9604 73.3079 57.8721 73.0259 57.7661 72.7609C57.7661 73.0429 57.7661 73.3439 57.8367 73.6259C57.9251 74.2619 58.031 75.0389 58.1547 75.9569V75.9389Z" fill="#263238"/>
<path d="M30.6345 13.3979C28.7798 12.2329 28.3383 9.51288 29.3451 7.53588C30.4756 5.61088 32.4187 4.33988 34.6267 4.05688C37.8415 3.58088 41.0739 4.65788 43.3526 6.97088C44.5361 8.20688 45.5076 9.79587 47.1327 10.3609C48.5635 10.8549 50.1356 10.3959 51.6194 10.6079C53.6331 10.9609 55.3818 12.2319 56.3709 14.0339C57.3248 15.8169 57.89 17.7769 58.049 19.7899C58.261 21.6259 58.4023 23.6569 59.6922 24.9989C60.9812 26.3399 62.9062 26.5879 64.4432 27.5239C67.3932 29.4659 68.2592 33.4209 66.3862 36.4049C65.7682 37.3059 64.9203 38.1179 64.8143 39.1949C64.7083 40.2719 65.3792 41.0659 65.6802 42.0019C66.2802 44.3509 64.8492 46.7519 62.5002 47.3519C62.3062 47.4049 62.1122 47.4409 61.9172 47.4579C60.6452 47.5289 59.2682 47.0349 58.102 47.5999C56.9362 48.1649 56.5299 49.5419 55.8057 50.6009C54.2689 52.6849 51.4603 53.4089 49.111 52.3319C48.1748 51.8729 47.274 51.1129 46.2318 51.1659C45.1896 51.2189 44.3594 52.1369 43.3349 52.3319C41.9924 52.5959 40.703 51.5899 39.9081 50.4779C39.1132 49.3649 38.548 48.0409 37.5235 47.1399C36.181 45.9399 34.2909 45.6749 32.5952 45.0569C25.3176 42.5319 21.4669 34.5859 23.9928 27.3119C24.2048 26.7109 24.4521 26.1289 24.7347 25.5809" fill="#263238"/>
<path d="M50.1885 37.5698C50.5947 37.1288 51.0893 36.7938 51.6546 36.5818H51.5486C51.6546 36.5638 51.7606 36.5458 51.8665 36.5288C52.2552 36.4048 52.6791 36.4579 53.0324 36.6699C53.6859 36.9169 54.2159 37.3758 54.5515 37.9938C55.0637 39.1068 54.9224 40.4128 54.1629 41.3838C53.4386 42.5668 51.9019 42.9378 50.7184 42.2138C50.1178 41.8428 49.6939 41.2249 49.5526 40.5189C49.2346 39.4949 49.4819 38.3828 50.1885 37.5698Z" fill="#455A64"/>
<path d="M25.7946 57.2048L23.8339 21.1668C23.7456 19.5778 24.8938 18.1998 26.4659 17.9888L42.6108 13.4328C47.7863 12.6908 51.4251 19.0298 51.902 24.2388C52.4319 30.0128 52.8559 37.1108 52.2906 41.4548C51.1601 50.1768 44.5185 51.4838 44.5185 51.4838C44.5185 51.4838 44.6775 59.3238 44.7304 62.4838L44.1475 73.3608L25.777 57.2048H25.7946Z" fill="#AB6E65"/>
<path d="M48.5455 31.7969C48.5632 32.3969 48.1039 32.9089 47.5033 32.9439C46.9204 33.0149 46.3905 32.5909 46.3198 32.0089C46.3198 32.0089 46.3198 31.9909 46.3198 31.9729C46.3022 31.3729 46.7614 30.8609 47.362 30.8079C47.9449 30.7369 48.4749 31.1789 48.5455 31.7609C48.5455 31.7609 48.5455 31.7609 48.5455 31.7789V31.7969Z" fill="#263238"/>
<path d="M50.4708 27.9829C50.3472 28.1239 49.464 27.5239 48.2628 27.5589C47.0617 27.5939 46.1961 28.2119 46.0548 28.0889C45.9135 27.9649 46.1255 27.7529 46.4964 27.4709C47.0087 27.0999 47.6269 26.8879 48.2452 26.8699C48.8634 26.8529 49.4816 27.0289 49.9939 27.3819C50.3825 27.6469 50.5238 27.9119 50.4532 27.9829H50.4708Z" fill="#263238"/>
<path d="M36.958 31.7969C36.9756 32.3969 36.5164 32.9089 35.9158 32.9439C35.3329 33.0149 34.803 32.5909 34.75 32.0079C34.75 32.0079 34.75 32.0079 34.75 31.9909C34.7323 31.3899 35.1916 30.8779 35.7922 30.8249C36.3751 30.7549 36.905 31.1789 36.958 31.7609C36.958 31.7609 36.958 31.7789 36.958 31.7969Z" fill="#263238"/>
<path d="M38.6715 28.5299C38.5302 28.6709 37.6646 28.0709 36.4635 28.1059C35.2623 28.1409 34.3968 28.7769 34.2555 28.6359C34.1142 28.4949 34.3261 28.2999 34.6971 28.0179C35.2093 27.6469 35.8099 27.4349 36.4458 27.4179C37.0641 27.3999 37.6823 27.5759 38.1946 27.9299C38.5832 28.1939 38.7245 28.4589 38.6538 28.5299H38.6715Z" fill="#263238"/>
<path d="M43.2814 37.3049C43.8997 37.0929 44.5533 36.9519 45.2245 36.8989C45.5248 36.8639 45.8251 36.7929 45.8604 36.5809C45.8604 36.2639 45.7897 35.9459 45.6308 35.6809C45.3128 34.9389 44.9948 34.1799 44.6592 33.3679C43.3168 30.0839 42.3099 27.3819 42.4512 27.3289C42.5925 27.2759 43.7937 29.8889 45.1362 33.1909C45.4541 34.0039 45.7721 34.7799 46.0724 35.5219C46.2843 35.8929 46.3373 36.3169 46.2667 36.7229C46.196 36.9519 46.0017 37.1109 45.7721 37.1819C45.6131 37.2349 45.4365 37.2699 45.2598 37.2699C44.6063 37.3579 43.935 37.3759 43.2814 37.3049Z" fill="#263238"/>
<path d="M44.5185 51.4839C40.4205 51.6609 36.3578 50.7069 32.772 48.7119C32.772 48.7119 35.7749 54.5739 44.4479 53.5499L44.5185 51.5019V51.4839Z" fill="#7C4B43"/>
<path d="M43.1757 40.1659C42.6104 39.3709 41.6743 38.9119 40.7027 38.9479C40.0668 38.9649 39.4839 39.3179 39.1483 39.8479C38.8127 40.4659 38.848 41.2079 39.2366 41.7899C39.6959 42.3909 40.4731 42.6559 41.1973 42.4439C41.8686 42.2139 42.4515 41.8079 42.9284 41.2959C43.0874 41.1719 43.211 41.0129 43.2994 40.8369C43.3877 40.6429 43.37 40.4129 43.2464 40.2369" fill="#7C4B43"/>
<path d="M39.7842 38.2239C39.9785 38.2239 40.0138 39.5129 41.162 40.4309C42.3102 41.3489 43.688 41.1719 43.7057 41.3309C43.7234 41.4899 43.4053 41.5959 42.8224 41.6319C42.0629 41.6669 41.3211 41.4199 40.7028 40.9609C40.1199 40.5189 39.7313 39.8479 39.6253 39.1239C39.5547 38.5419 39.6782 38.2409 39.7842 38.2409V38.2239Z" fill="#263238"/>
<path d="M39.0599 23.5679C38.954 23.9039 37.7528 23.7799 36.3397 23.9919C34.9266 24.2039 33.8137 24.6099 33.6018 24.3279C33.5135 24.1859 33.7077 23.8689 34.167 23.5509C34.7676 23.1449 35.4565 22.8969 36.1631 22.8089C36.8873 22.7029 37.6115 22.7559 38.3004 23.0029C38.8303 23.1619 39.0953 23.4089 39.0423 23.5679H39.0599Z" fill="#263238"/>
<path d="M49.9588 23.851C49.7468 24.133 48.9166 23.8509 47.9274 23.8859C46.9382 23.9209 46.0904 24.116 45.8961 23.851C45.8077 23.71 45.9314 23.4449 46.2846 23.1619C47.2738 22.4909 48.5633 22.4909 49.5525 23.1619C49.8881 23.4269 50.0118 23.71 49.9411 23.851H49.9588Z" fill="#263238"/>
<path d="M57.7663 22.3849C57.413 21.0609 56.6005 19.8959 55.47 19.1009C54.8517 18.6949 54.1098 18.4479 53.5269 17.9709C52.2728 16.9649 51.9725 15.1989 51.1953 13.7689C50.1708 11.9149 48.2984 10.6789 46.1964 10.4489C44.4653 10.2729 42.6989 10.7849 41.0208 10.3609C39.7843 10.0429 38.6892 9.23092 37.435 9.00092C34.9797 8.52392 32.7011 10.2899 30.917 12.0379C30.917 13.7859 32.3125 14.9689 33.6549 16.0819C35.0327 17.2119 36.8344 17.6879 38.5832 17.3879C39.9256 17.1409 41.3918 16.4699 42.5399 17.1759C43.6881 17.8829 43.8117 19.7539 44.8892 20.6899C46.4437 22.0319 48.8813 20.7779 50.8597 21.3609C52.3788 21.8029 53.315 23.2499 54.3218 24.4689C55.3287 25.6869 56.8301 26.8519 58.3492 26.3929C58.3139 25.0339 58.1019 23.6739 57.7486 22.3499L57.7663 22.3849Z" fill="#263238"/>
<path d="M39.3606 15.0048C38.2654 14.6868 36.0221 13.9798 35.4215 13.0268C34.2204 10.9258 31.9771 9.6548 29.5571 9.6718C27.1018 9.8658 25.0704 11.6668 24.5758 14.0688C21.6613 14.1748 19.0293 15.8698 17.7222 18.4648C17.5456 18.8008 17.4043 19.1358 17.2806 19.4888C16.4151 21.0428 16.2738 22.9148 16.9097 24.5918C17.2983 25.5808 17.9342 26.6938 17.4396 27.6288C16.945 28.5648 15.6025 28.6008 14.578 28.9538C12.7586 29.6418 11.6811 31.5318 12.0344 33.4388C12.2817 34.0738 12.3877 34.7448 12.3524 35.4158C12.1051 36.0688 11.6988 36.6698 11.1689 37.1288C9.3848 39.2478 9.6674 42.4078 11.7871 44.1918C12.4583 44.7568 13.2532 45.1278 14.1011 45.2858C14.896 45.3218 15.6732 45.4978 16.3974 45.8158C17.1746 46.2928 17.5102 47.2288 18.0578 47.9528C19.1707 49.3648 21.0254 49.9478 22.7388 49.4178C23.0744 49.3118 23.3924 49.1358 23.675 48.9408C24.3286 49.7888 25.3707 50.2298 26.4306 50.1238L26.1126 31.7788C26.3246 32.2378 26.7309 32.5558 27.2254 32.6438C30.1577 33.3148 30.5993 27.2588 29.9457 25.6158C31.0585 24.7158 32.0301 23.6568 32.8779 22.5088C33.8141 20.6728 34.2911 18.6238 34.2204 16.5578C35.2979 16.6288 39.8199 15.1458 39.343 15.0048H39.3606Z" fill="#263238"/>
<path d="M26.9421 33.2799C26.8538 31.4079 24.5751 31.0199 22.95 31.9549C22.0668 32.4669 21.3779 33.4919 21.4839 35.4689C21.6959 40.7489 26.9598 39.4419 26.9598 39.2829C26.9598 39.1239 27.0481 35.4509 26.9598 33.2799H26.9421Z" fill="#AB6E65"/>
<path d="M25.2469 37.3579C25.2469 37.3579 25.1585 37.4289 25.0172 37.4999C24.7876 37.5879 24.5403 37.5879 24.3283 37.4999C23.6218 37.0939 23.1802 36.3339 23.1978 35.5039C23.1625 35.0449 23.2331 34.6039 23.4098 34.1799C23.4981 33.8449 23.7454 33.5619 24.0634 33.4389C24.2753 33.3679 24.505 33.4739 24.611 33.6679C24.6993 33.8089 24.6639 33.9149 24.6993 33.9329C24.7346 33.9509 24.8053 33.8449 24.7523 33.6329C24.7169 33.5089 24.6286 33.3859 24.5226 33.3149C24.3813 33.2089 24.187 33.1739 24.0104 33.2089C23.5688 33.3149 23.2332 33.6329 23.0918 34.0569C22.8975 34.5159 22.8092 35.0279 22.8269 35.5219C22.9152 36.5819 23.4804 37.5529 24.293 37.7289C24.5756 37.7999 24.8936 37.7289 25.1232 37.5529C25.2468 37.4999 25.2822 37.3759 25.2469 37.3759V37.3579Z" fill="#7C4B43"/>
<path d="M32.1009 13.5919C31.6946 13.8039 31.3413 14.1039 31.0587 14.4749C30.4405 15.6049 30.3168 16.9119 30.6701 18.1479V18.2708H30.5465C29.0097 18.6768 27.7555 19.7899 27.155 21.2729C26.996 21.6789 26.89 22.1199 26.8723 22.5619C26.8723 23.0389 26.943 23.4978 27.049 23.9568C27.1549 24.4328 27.2256 24.9278 27.2433 25.4218C27.2786 25.9698 27.1373 26.5169 26.8193 26.9759C26.1305 27.8409 25.2296 28.5299 24.2051 28.9359C23.3042 29.3249 22.474 29.8718 21.7498 30.5428C20.5663 31.7078 19.8597 33.2798 19.7714 34.9388C19.7361 36.0688 20.001 37.1998 20.5133 38.2058C20.8666 38.9478 21.1669 39.2648 21.1315 39.2828C21.0962 39.3008 21.0432 39.1949 20.9019 39.0359C20.7076 38.7889 20.5309 38.5239 20.372 38.2589C18.9235 35.6279 19.4005 32.3619 21.5378 30.2599C22.2797 29.5539 23.1276 28.9888 24.0638 28.5648C25.0353 28.1768 25.8831 27.5408 26.5367 26.7108C27.1196 25.9168 26.8547 24.8748 26.7134 23.9208C26.6074 23.4448 26.5544 22.9498 26.5544 22.4558C26.572 21.9788 26.678 21.5019 26.8547 21.0609C27.5082 19.4899 28.8684 18.3238 30.5288 17.9178L30.4228 18.0948C30.1225 16.4698 30.3521 15.0399 30.9527 14.2979C31.1647 14.0159 31.4473 13.7859 31.7829 13.6269C31.8889 13.5919 31.9949 13.5739 32.1185 13.5739L32.1009 13.5919Z" fill="#455A64"/>
<path d="M23.2861 39.3359C23.6924 38.8949 24.187 38.5589 24.7523 38.3469H24.6463C24.7522 38.3299 24.8582 38.3119 24.9642 38.2939C25.3528 38.1879 25.7768 38.2409 26.1301 38.4349C26.7836 38.6649 27.3135 39.1419 27.6492 39.7599C28.1614 40.8719 28.0201 42.1789 27.2605 43.1499C26.5363 44.3329 24.9819 44.7039 23.8161 43.9799C23.2155 43.6089 22.7915 42.9909 22.6679 42.2849C22.3499 41.2609 22.5972 40.1479 23.3038 39.3359H23.2861Z" fill="#455A64"/>
</g>
</svg>
