<svg width="338" height="691" viewBox="0 0 338 691" fill="none" xmlns="http://www.w3.org/2000/svg">
<g clip-path="url(#clip0_63_396)">
<path d="M286.428 691L51.7797 690.876C23.5526 690.859 0.677734 667.975 0.677734 639.777L0.801382 51.7271C0.872038 23.4935 23.7822 0.627686 52.027 0.627686L286.676 0.768942C314.903 0.786599 337.778 23.6701 337.778 51.8684L337.654 639.918C337.654 668.134 314.779 691 286.552 691C286.517 691 286.464 691 286.428 691Z" fill="#455A64"/>
<path d="M286.358 21.4983H240.873C234.62 21.6396 229.674 26.8131 229.815 33.0637V41.3272C229.956 47.5777 225.01 52.7513 218.757 52.8925H130.066C123.831 52.7336 118.885 47.5601 119.026 41.3272V33.0637C119.168 26.8131 114.222 21.6396 107.969 21.4983H52.1504C32.4197 21.4806 16.3984 37.425 16.3278 57.1479L16.2041 631.196C16.2395 650.936 32.2607 666.916 51.9914 666.933L286.199 667.057C305.982 667.057 322.021 651.042 322.021 631.284L322.127 57.2361C322.092 37.4956 306.088 21.516 286.358 21.4983Z" fill="white"/>
<path d="M322.11 142.149V56.6358C321.756 37.1424 305.859 21.516 286.358 21.4983H240.873C234.637 21.6396 229.674 26.7954 229.815 33.046C229.815 33.046 229.815 33.046 229.815 33.0637V41.3272C229.957 47.5777 225.011 52.7513 218.758 52.8925H130.067C123.831 52.7336 118.885 47.5601 119.027 41.3272V33.0637C119.168 26.8131 114.222 21.6396 107.969 21.4983H52.1507C32.42 21.4806 16.3988 37.425 16.3281 57.1479V142.414H322.127V142.149H322.11Z" fill="#0386B7"/>
<path d="M239.954 114.869C239.954 115.098 211.869 115.293 177.053 115.293C142.237 115.293 114.151 115.098 114.151 114.869C114.151 114.639 142.237 114.427 177.053 114.427C211.869 114.427 239.954 114.622 239.954 114.869Z" fill="white"/>
<path d="M57.8202 103.409C57.6435 103.409 57.4669 103.356 57.3256 103.25L49.5711 97.5646C49.3591 97.4057 49.2355 97.1585 49.2178 96.8937C49.2178 96.6288 49.3415 96.3816 49.5711 96.2404L57.3256 90.6607C57.6965 90.3959 58.2088 90.4842 58.4737 90.855C58.7387 91.2258 58.6504 91.7202 58.2971 92.0027L51.4611 96.9643L58.2971 101.926C58.6681 102.191 58.7387 102.703 58.4737 103.074C58.3324 103.303 58.0851 103.427 57.8202 103.444V103.409Z" fill="white"/>
<path d="M57.2905 644.474H183.606C189.876 644.474 194.964 639.388 194.964 633.12V620.954L208.901 608.594H57.3082C51.0374 608.594 45.9502 613.68 45.9502 619.948V633.155C45.9855 639.406 51.0551 644.456 57.3082 644.456L57.2905 644.474Z" fill="#EBEBEB"/>
<path d="M178.325 627.064C178.325 627.293 152.571 627.488 120.828 627.488C89.0862 627.488 63.3145 627.293 63.3145 627.064C63.3145 626.834 89.0686 626.64 120.828 626.64C152.588 626.64 178.325 626.817 178.325 627.064Z" fill="white"/>
<path d="M275.565 268.114H149.232C142.961 268.114 137.892 263.029 137.874 256.76V203.736L123.937 191.377H275.547C281.818 191.324 286.94 196.373 286.976 202.642C286.976 202.677 286.976 202.712 286.976 202.748V256.76C286.976 263.029 281.871 268.114 275.583 268.114C275.583 268.114 275.547 268.114 275.529 268.114H275.565Z" fill="#EBEBEB"/>
<path d="M266.892 276.713C262.405 277.137 257.901 277.278 253.414 277.137C248.927 277.278 244.423 277.137 239.954 276.713C244.423 276.289 248.927 276.148 253.414 276.289C257.918 276.148 262.423 276.289 266.892 276.713Z" fill="#E0E0E0"/>
<path d="M272.473 277.773C272.367 277.773 272.261 277.72 272.173 277.649L269.559 274.93C269.4 274.771 269.4 274.506 269.559 274.347C269.7 274.188 269.965 274.188 270.124 274.329C270.124 274.329 270.124 274.329 270.142 274.347L272.456 276.766L277.525 271.61C277.667 271.451 277.932 271.451 278.091 271.593C278.091 271.593 278.091 271.593 278.108 271.61C278.267 271.769 278.267 272.034 278.108 272.193L272.738 277.667C272.738 277.667 272.579 277.79 272.473 277.79V277.773Z" fill="#54BAE2"/>
<path d="M276.183 277.684H275.706C275.476 277.684 275.3 277.508 275.3 277.278C275.317 277.049 275.512 276.872 275.724 276.872H276.024L281.27 271.54C281.429 271.381 281.694 271.363 281.853 271.54C282.012 271.699 282.012 271.963 281.853 272.122L276.483 277.578C276.483 277.578 276.307 277.72 276.183 277.702V277.684Z" fill="#54BAE2"/>
<path d="M273.94 206.579C273.94 206.809 246.366 207.003 212.328 207.003C178.289 207.003 150.733 206.809 150.733 206.579C150.733 206.35 178.289 206.156 212.328 206.156C246.366 206.156 273.94 206.332 273.94 206.579Z" fill="white"/>
<path d="M273.94 215.602C273.94 215.849 246.366 216.026 212.328 216.026C178.289 216.026 150.733 215.849 150.733 215.602C150.733 215.355 178.289 215.178 212.328 215.178C246.366 215.178 273.94 215.373 273.94 215.602Z" fill="white"/>
<path d="M273.94 224.66C273.94 224.89 246.366 225.084 212.328 225.084C178.289 225.084 150.733 224.89 150.733 224.66C150.733 224.431 178.289 224.236 212.328 224.236C246.366 224.236 273.94 224.431 273.94 224.66Z" fill="white"/>
<path d="M273.94 233.718C273.94 233.948 246.366 234.142 212.328 234.142C178.289 234.142 150.733 233.948 150.733 233.718C150.733 233.489 178.289 233.294 212.328 233.294C246.366 233.294 273.94 233.471 273.94 233.718Z" fill="white"/>
<path d="M273.94 242.741C273.94 242.988 246.366 243.165 212.328 243.165C178.289 243.165 150.733 242.988 150.733 242.741C150.733 242.494 178.289 242.317 212.328 242.317C246.366 242.317 273.94 242.511 273.94 242.741Z" fill="white"/>
<path d="M273.94 253.618C273.94 253.865 246.366 254.041 212.328 254.041C178.289 254.041 150.733 253.865 150.733 253.618C150.733 253.37 178.289 253.194 212.328 253.194C246.366 253.194 273.94 253.388 273.94 253.618Z" fill="white"/>
<path d="M78.6821 258.314C99.1005 258.314 115.653 241.768 115.653 221.358C115.653 200.948 99.1005 184.402 78.6821 184.402C58.2637 184.402 41.7114 200.948 41.7114 221.358C41.7114 241.768 58.2637 258.314 78.6821 258.314Z" fill="#E0E0E0"/>
<mask id="mask0_63_396" style="mask-type:luminance" maskUnits="userSpaceOnUse" x="41" y="184" width="75" height="75">
<path d="M78.6821 258.314C99.1005 258.314 115.653 241.768 115.653 221.358C115.653 200.948 99.1005 184.402 78.6821 184.402C58.2637 184.402 41.7114 200.948 41.7114 221.358C41.7114 241.768 58.2637 258.314 78.6821 258.314Z" fill="white"/>
</mask>
<g mask="url(#mask0_63_396)">
<path d="M56.2667 260.133H106.326L99.4374 246.272C99.0135 245.407 98.2717 244.718 97.3885 244.33C94.5623 243.129 88.3091 240.516 87.6732 240.392C73.595 237.92 54.2354 243.518 54.2354 243.518L56.2667 256.107V260.098V260.133Z" fill="#54BAE2"/>
<path d="M61.7777 260.133L61.6011 253.282L54.1999 243.518C48.1058 245.707 45.1912 252.894 43.8311 260.133H61.7777Z" fill="#54BAE2"/>
<path d="M99.1547 259.586C99.1723 259.762 99.2077 259.957 99.2254 260.133H99.5433C99.508 259.939 99.4726 259.727 99.4373 259.533C99.2607 258.562 99.1017 257.767 98.9957 257.237C98.9604 256.955 98.8721 256.672 98.7661 256.407C98.7661 256.69 98.7661 256.99 98.8367 257.273C98.9251 257.908 99.031 258.685 99.1547 259.603V259.586Z" fill="#263238"/>
<path d="M71.6345 197.044C69.7798 195.879 69.3383 193.16 70.3451 191.182C71.4756 189.258 73.4187 187.986 75.6267 187.704C78.8415 187.227 82.0739 188.304 84.3526 190.617C85.5361 191.853 86.5076 193.442 88.1327 194.007C89.5635 194.502 91.1356 194.043 92.6194 194.255C94.6331 194.608 96.3818 195.879 97.3709 197.68C98.3248 199.463 98.89 201.423 99.049 203.436C99.261 205.273 99.4023 207.303 100.692 208.645C101.981 209.987 103.906 210.234 105.443 211.17C108.393 213.112 109.259 217.068 107.386 220.052C106.768 220.952 105.92 221.764 105.814 222.841C105.708 223.918 106.379 224.713 106.68 225.649C107.28 227.997 105.849 230.399 103.5 230.999C103.306 231.052 103.112 231.087 102.917 231.105C101.645 231.176 100.268 230.681 99.102 231.246C97.9362 231.811 97.5299 233.188 96.8057 234.248C95.2689 236.331 92.4603 237.055 90.111 235.978C89.1748 235.519 88.274 234.76 87.2318 234.813C86.1896 234.866 85.3594 235.784 84.3349 235.978C82.9924 236.243 81.703 235.237 80.9081 234.124C80.1132 233.012 79.548 231.688 78.5235 230.787C77.181 229.586 75.2909 229.322 73.5952 228.704C66.3176 226.179 62.4669 218.233 64.9928 210.958C65.2048 210.358 65.4521 209.775 65.7347 209.228" fill="#263238"/>
<path d="M91.1885 221.199C91.5947 220.758 92.0893 220.422 92.6546 220.211H92.5486C92.6546 220.193 92.7606 220.175 92.8665 220.158C93.2552 220.034 93.6791 220.087 94.0324 220.299C94.6859 220.546 95.2159 221.005 95.5515 221.623C96.0637 222.736 95.9224 224.042 95.1629 225.013C94.4386 226.196 92.9019 226.567 91.7184 225.843C91.1178 225.472 90.6939 224.854 90.5526 224.148C90.2346 223.124 90.4819 222.012 91.1885 221.199Z" fill="#455A64"/>
<path d="M66.7946 240.852L64.8339 204.814C64.7456 203.224 65.8938 201.847 67.4659 201.635L83.6108 197.08C88.7863 196.338 92.4251 202.677 92.902 207.886C93.4319 213.66 93.8559 220.758 93.2906 225.101C92.1601 233.824 85.5185 235.131 85.5185 235.131C85.5185 235.131 85.6775 242.97 85.7304 246.131L85.1475 257.008L66.777 240.852H66.7946Z" fill="#AB6E65"/>
<path d="M89.5455 215.443C89.5632 216.043 89.1039 216.556 88.5033 216.591C87.9204 216.661 87.3905 216.238 87.3198 215.655C87.3198 215.655 87.3198 215.637 87.3198 215.62C87.3022 215.019 87.7614 214.507 88.362 214.454C88.9449 214.384 89.4749 214.825 89.5455 215.408C89.5455 215.408 89.5455 215.408 89.5455 215.425V215.443Z" fill="#263238"/>
<path d="M91.4708 211.612C91.3472 211.753 90.464 211.152 89.2628 211.188C88.0617 211.223 87.1961 211.841 87.0548 211.717C86.9135 211.594 87.1255 211.382 87.4964 211.099C88.0087 210.729 88.6269 210.517 89.2452 210.499C89.8634 210.481 90.4816 210.658 90.9939 211.011C91.3825 211.276 91.5238 211.541 91.4532 211.612H91.4708Z" fill="#263238"/>
<path d="M77.958 215.443C77.9756 216.044 77.5164 216.556 76.9158 216.591C76.3329 216.662 75.803 216.238 75.75 215.655C75.75 215.655 75.75 215.655 75.75 215.637C75.7323 215.037 76.1916 214.525 76.7922 214.472C77.3751 214.401 77.905 214.825 77.958 215.408C77.958 215.408 77.958 215.426 77.958 215.443Z" fill="#263238"/>
<path d="M79.6715 212.177C79.5302 212.318 78.6646 211.718 77.4635 211.753C76.2623 211.788 75.3968 212.424 75.2555 212.283C75.1142 212.141 75.3261 211.947 75.6971 211.665C76.2093 211.294 76.8099 211.082 77.4458 211.064C78.0641 211.047 78.6823 211.223 79.1946 211.576C79.5832 211.841 79.7245 212.106 79.6538 212.177H79.6715Z" fill="#263238"/>
<path d="M84.2814 220.952C84.8997 220.74 85.5533 220.599 86.2245 220.546C86.5248 220.511 86.8251 220.44 86.8604 220.228C86.8604 219.911 86.7897 219.593 86.6308 219.328C86.3128 218.586 85.9948 217.827 85.6592 217.015C84.3168 213.731 83.3099 211.029 83.4512 210.976C83.5925 210.923 84.7937 213.536 86.1362 216.838C86.4541 217.651 86.7721 218.427 87.0724 219.169C87.2843 219.54 87.3373 219.964 87.2667 220.37C87.196 220.599 87.0017 220.758 86.7721 220.829C86.6131 220.882 86.4365 220.917 86.2598 220.917C85.6063 221.005 84.935 221.023 84.2814 220.952Z" fill="#263238"/>
<path d="M85.5185 235.131C81.4205 235.307 77.3578 234.354 73.772 232.359C73.772 232.359 76.7749 238.221 85.4479 237.197L85.5185 235.148V235.131Z" fill="#7C4B43"/>
<path d="M84.1757 223.795C83.6104 223 82.6743 222.541 81.7027 222.577C81.0668 222.594 80.4839 222.947 80.1483 223.477C79.8127 224.095 79.848 224.837 80.2366 225.419C80.6959 226.02 81.4731 226.285 82.1973 226.073C82.8686 225.843 83.4515 225.437 83.9284 224.925C84.0874 224.801 84.211 224.642 84.2994 224.466C84.3877 224.272 84.37 224.042 84.2464 223.866" fill="#7C4B43"/>
<path d="M80.7842 221.87C80.9785 221.87 81.0138 223.159 82.162 224.077C83.3102 224.996 84.688 224.819 84.7057 224.978C84.7234 225.137 84.4053 225.243 83.8224 225.278C83.0629 225.313 82.3211 225.066 81.7028 224.607C81.1199 224.166 80.7313 223.495 80.6253 222.771C80.5547 222.188 80.6782 221.888 80.7842 221.888V221.87Z" fill="#263238"/>
<path d="M80.0599 207.215C79.954 207.551 78.7528 207.427 77.3397 207.639C75.9266 207.851 74.8137 208.257 74.6018 207.974C74.5135 207.833 74.7077 207.515 75.167 207.197C75.7676 206.791 76.4565 206.544 77.1631 206.456C77.8873 206.35 78.6115 206.403 79.3004 206.65C79.8303 206.809 80.0953 207.056 80.0423 207.215H80.0599Z" fill="#263238"/>
<path d="M90.9588 207.498C90.7468 207.78 89.9166 207.498 88.9274 207.533C87.9382 207.568 87.0904 207.762 86.8961 207.498C86.8077 207.356 86.9314 207.091 87.2846 206.809C88.2738 206.138 89.5633 206.138 90.5525 206.809C90.8881 207.074 91.0118 207.356 90.9411 207.498H90.9588Z" fill="#263238"/>
<path d="M98.7663 206.032C98.413 204.708 97.6005 203.542 96.47 202.748C95.8517 202.342 95.1098 202.095 94.5269 201.618C93.2728 200.611 92.9725 198.846 92.1953 197.415C91.1708 195.561 89.2984 194.325 87.1964 194.096C85.4653 193.919 83.6989 194.431 82.0208 194.008C80.7843 193.69 79.6892 192.878 78.435 192.648C75.9797 192.171 73.7011 193.937 71.917 195.685C71.917 197.433 73.3125 198.616 74.6549 199.729C76.0327 200.859 77.8344 201.335 79.5832 201.035C80.9256 200.788 82.3918 200.117 83.5399 200.823C84.6881 201.53 84.8117 203.401 85.8892 204.337C87.4437 205.679 89.8813 204.425 91.8597 205.008C93.3788 205.449 94.315 206.897 95.3218 208.116C96.3287 209.334 97.8301 210.499 99.3492 210.04C99.3139 208.681 99.1019 207.321 98.7486 205.997L98.7663 206.032Z" fill="#263238"/>
<path d="M80.3606 198.651C79.2654 198.334 77.0221 197.627 76.4215 196.674C75.2204 194.573 72.9771 193.301 70.5571 193.319C68.1018 193.513 66.0704 195.314 65.5758 197.716C62.6613 197.821 60.0293 199.517 58.7222 202.112C58.5456 202.448 58.4043 202.783 58.2806 203.136C57.4151 204.69 57.2738 206.562 57.9097 208.239C58.2983 209.228 58.9342 210.34 58.4396 211.276C57.945 212.212 56.6025 212.247 55.578 212.6C53.7586 213.289 52.6811 215.178 53.0344 217.085C53.2817 217.721 53.3877 218.392 53.3524 219.063C53.1051 219.716 52.6988 220.317 52.1689 220.776C50.3848 222.894 50.6674 226.055 52.7871 227.838C53.4583 228.403 54.2532 228.774 55.1011 228.933C55.896 228.968 56.6732 229.145 57.3974 229.463C58.1746 229.94 58.5102 230.875 59.0578 231.599C60.1707 233.012 62.0254 233.595 63.7388 233.065C64.0744 232.959 64.3924 232.782 64.675 232.588C65.3286 233.436 66.3707 233.877 67.4306 233.771L67.1126 215.426C67.3246 215.885 67.7309 216.202 68.2254 216.291C71.1577 216.962 71.5993 210.905 70.9457 209.263C72.0585 208.363 73.0301 207.303 73.8779 206.156C74.8141 204.319 75.2911 202.271 75.2204 200.205C76.2979 200.276 80.8199 198.793 80.343 198.651H80.3606Z" fill="#263238"/>
<path d="M67.9421 216.926C67.8538 215.055 65.5751 214.666 63.95 215.602C63.0668 216.114 62.3779 217.138 62.4839 219.116C62.6959 224.395 67.9598 223.089 67.9598 222.93C67.9598 222.771 68.0481 219.098 67.9598 216.926H67.9421Z" fill="#AB6E65"/>
<path d="M66.2469 221.005C66.2469 221.005 66.1585 221.076 66.0172 221.146C65.7876 221.235 65.5403 221.235 65.3283 221.146C64.6218 220.74 64.1802 219.981 64.1978 219.151C64.1625 218.692 64.2331 218.251 64.4098 217.827C64.4981 217.491 64.7454 217.209 65.0634 217.085C65.2753 217.015 65.505 217.121 65.611 217.315C65.6993 217.456 65.6639 217.562 65.6993 217.58C65.7346 217.597 65.8053 217.491 65.7523 217.28C65.7169 217.156 65.6286 217.032 65.5226 216.962C65.3813 216.856 65.187 216.82 65.0104 216.856C64.5688 216.962 64.2332 217.28 64.0918 217.703C63.8975 218.162 63.8092 218.674 63.8269 219.169C63.9152 220.228 64.4804 221.199 65.293 221.376C65.5756 221.447 65.8936 221.376 66.1232 221.199C66.2468 221.146 66.2822 221.023 66.2469 221.023V221.005Z" fill="#7C4B43"/>
<path d="M73.1009 197.221C72.6946 197.433 72.3413 197.733 72.0587 198.104C71.4405 199.234 71.3168 200.541 71.6701 201.777V201.9H71.5465C70.0097 202.306 68.7555 203.419 68.155 204.902C67.996 205.308 67.89 205.749 67.8723 206.191C67.8723 206.668 67.943 207.127 68.049 207.586C68.1549 208.063 68.2256 208.557 68.2433 209.051C68.2786 209.599 68.1373 210.146 67.8193 210.605C67.1305 211.47 66.2296 212.159 65.2051 212.565C64.3042 212.954 63.474 213.501 62.7498 214.172C61.5663 215.337 60.8597 216.909 60.7714 218.569C60.7361 219.699 61.001 220.829 61.5133 221.835C61.8666 222.577 62.1669 222.894 62.1315 222.912C62.0962 222.93 62.0432 222.824 61.9019 222.665C61.7076 222.418 61.5309 222.153 61.372 221.888C59.9235 219.257 60.4005 215.991 62.5378 213.889C63.2797 213.183 64.1276 212.618 65.0638 212.194C66.0353 211.806 66.8831 211.17 67.5367 210.34C68.1196 209.546 67.8547 208.504 67.7134 207.551C67.6074 207.074 67.5544 206.579 67.5544 206.085C67.572 205.608 67.678 205.132 67.8547 204.69C68.5082 203.119 69.8684 201.953 71.5288 201.547L71.4228 201.724C71.1225 200.099 71.3521 198.669 71.9527 197.927C72.1647 197.645 72.4473 197.415 72.7829 197.256C72.8889 197.221 72.9949 197.203 73.1185 197.203L73.1009 197.221Z" fill="#455A64"/>
<path d="M64.2861 222.983C64.6924 222.541 65.187 222.206 65.7523 221.994H65.6463C65.7522 221.976 65.8582 221.959 65.9642 221.941C66.3528 221.835 66.7768 221.888 67.1301 222.082C67.7836 222.312 68.3135 222.788 68.6492 223.406C69.1614 224.519 69.0201 225.826 68.2605 226.797C67.5363 227.98 65.9819 228.35 64.8161 227.627C64.2155 227.256 63.7915 226.638 63.6679 225.931C63.3499 224.907 63.5972 223.795 64.3038 222.983H64.2861Z" fill="#455A64"/>
</g>
<path d="M266.892 484.289C262.405 484.713 257.901 484.854 253.414 484.713C248.927 484.854 244.423 484.713 239.954 484.289C244.423 483.866 248.927 483.724 253.414 483.865C257.918 483.724 262.423 483.866 266.892 484.289Z" fill="#E0E0E0"/>
<path d="M272.474 485.349C272.35 485.349 272.209 485.313 272.12 485.225L269.506 482.506C269.33 482.365 269.294 482.1 269.436 481.923C269.577 481.747 269.842 481.711 270.018 481.853C270.054 481.87 270.071 481.906 270.089 481.941L272.403 484.36L277.473 479.204C277.614 479.045 277.879 479.045 278.038 479.186C278.038 479.186 278.038 479.186 278.056 479.204C278.215 479.363 278.215 479.628 278.056 479.787L272.756 485.243C272.756 485.243 272.562 485.366 272.456 485.366L272.474 485.349Z" fill="#54BAE2"/>
<path d="M276.183 485.225H275.706C275.476 485.225 275.3 485.031 275.3 484.801C275.3 484.589 275.476 484.413 275.688 484.395C275.688 484.395 275.706 484.395 275.724 484.395H276.024L281.27 479.063C281.429 478.904 281.694 478.886 281.853 479.063C282.012 479.221 282.012 479.486 281.853 479.645L276.483 485.101C276.483 485.101 276.307 485.243 276.183 485.225Z" fill="#54BAE2"/>
<path d="M275.565 473.465H149.232C142.961 473.465 137.874 468.363 137.874 462.094V434.284L123.937 421.925H275.547C281.818 421.925 286.887 427.01 286.905 433.278V462.094C286.905 468.363 281.818 473.448 275.547 473.465H275.565Z" fill="#EBEBEB"/>
<path d="M273.94 437.109C273.94 437.357 246.366 437.533 212.328 437.533C178.289 437.533 150.733 437.357 150.733 437.109C150.733 436.862 178.289 436.686 212.328 436.686C246.366 436.686 273.94 436.88 273.94 437.109Z" fill="white"/>
<path d="M273.94 446.15C273.94 446.379 246.366 446.574 212.328 446.574C178.289 446.574 150.733 446.379 150.733 446.15C150.733 445.92 178.289 445.726 212.328 445.726C246.366 445.726 273.94 445.92 273.94 446.15Z" fill="white"/>
<path d="M273.94 455.208C273.94 455.437 246.366 455.632 212.328 455.632C178.289 455.632 150.733 455.437 150.733 455.208C150.733 454.978 178.289 454.784 212.328 454.784C246.366 454.784 273.94 454.961 273.94 455.208Z" fill="white"/>
<path d="M78.6821 488.686C99.1005 488.686 115.653 472.14 115.653 451.729C115.653 431.319 99.1005 414.773 78.6821 414.773C58.2637 414.773 41.7114 431.319 41.7114 451.729C41.7114 472.14 58.2637 488.686 78.6821 488.686Z" fill="#E0E0E0"/>
<mask id="mask1_63_396" style="mask-type:luminance" maskUnits="userSpaceOnUse" x="41" y="414" width="75" height="75">
<path d="M78.6821 488.686C99.1005 488.686 115.653 472.14 115.653 451.729C115.653 431.319 99.1005 414.773 78.6821 414.773C58.2637 414.773 41.7114 431.319 41.7114 451.729C41.7114 472.14 58.2637 488.686 78.6821 488.686Z" fill="white"/>
</mask>
<g mask="url(#mask1_63_396)">
<path d="M56.2667 490.487H106.326L99.4374 476.626C99.0135 475.761 98.2717 475.072 97.3885 474.684C94.5623 473.483 88.3091 470.87 87.6732 470.746C73.595 468.274 54.2354 473.871 54.2354 473.871L56.2667 486.461V490.451V490.487Z" fill="#54BAE2"/>
<path d="M61.7777 490.487L61.6011 483.636L54.1999 473.871C48.1058 476.061 45.1912 483.247 43.8311 490.487H61.7777Z" fill="#54BAE2"/>
<path d="M99.1547 489.939C99.1723 490.116 99.2077 490.31 99.2254 490.487H99.5433C99.508 490.292 99.4726 490.08 99.4373 489.886C99.2607 488.915 99.1017 488.121 98.9957 487.591C98.9604 487.308 98.8721 487.026 98.7661 486.761C98.7661 487.043 98.7661 487.344 98.8367 487.626C98.9251 488.262 99.031 489.039 99.1547 489.957V489.939Z" fill="#263238"/>
<path d="M71.6345 427.398C69.7798 426.233 69.3383 423.513 70.3451 421.536C71.4756 419.611 73.4187 418.34 75.6267 418.057C78.8415 417.581 82.0739 418.658 84.3526 420.971C85.5361 422.207 86.5076 423.796 88.1327 424.361C89.5635 424.855 91.1356 424.396 92.6194 424.608C94.6331 424.961 96.3818 426.232 97.3709 428.034C98.3248 429.817 98.89 431.777 99.049 433.79C99.261 435.626 99.4023 437.657 100.692 438.999C101.981 440.34 103.906 440.588 105.443 441.524C108.393 443.466 109.259 447.421 107.386 450.405C106.768 451.306 105.92 452.118 105.814 453.195C105.708 454.272 106.379 455.066 106.68 456.002C107.28 458.351 105.849 460.752 103.5 461.352C103.306 461.405 103.112 461.441 102.917 461.458C101.645 461.529 100.268 461.035 99.102 461.6C97.9362 462.165 97.5299 463.542 96.8057 464.601C95.2689 466.685 92.4603 467.409 90.111 466.332C89.1748 465.873 88.274 465.113 87.2318 465.166C86.1896 465.219 85.3594 466.137 84.3349 466.332C82.9924 466.596 81.703 465.59 80.9081 464.478C80.1132 463.365 79.548 462.041 78.5235 461.14C77.181 459.94 75.2909 459.675 73.5952 459.057C66.3176 456.532 62.4669 448.586 64.9928 441.312C65.2048 440.711 65.4521 440.129 65.7347 439.581" fill="#263238"/>
<path d="M91.1885 451.57C91.5947 451.129 92.0893 450.794 92.6546 450.582H92.5486C92.6546 450.564 92.7606 450.546 92.8665 450.529C93.2552 450.405 93.6791 450.458 94.0324 450.67C94.6859 450.917 95.2159 451.376 95.5515 451.994C96.0637 453.107 95.9224 454.413 95.1629 455.384C94.4386 456.567 92.9019 456.938 91.7184 456.214C91.1178 455.843 90.6939 455.225 90.5526 454.519C90.2346 453.495 90.4819 452.383 91.1885 451.57Z" fill="#455A64"/>
<path d="M66.7946 471.205L64.8339 435.167C64.7456 433.578 65.8938 432.2 67.4659 431.989L83.6108 427.433C88.7863 426.691 92.4251 433.03 92.902 438.239C93.4319 444.013 93.8559 451.111 93.2906 455.455C92.1601 464.177 85.5185 465.484 85.5185 465.484C85.5185 465.484 85.6775 473.324 85.7304 476.484L85.1475 487.361L66.777 471.205H66.7946Z" fill="#AB6E65"/>
<path d="M89.5455 445.797C89.5632 446.397 89.1039 446.909 88.5033 446.944C87.9204 447.015 87.3905 446.591 87.3198 446.009C87.3198 446.009 87.3198 445.991 87.3198 445.973C87.3022 445.373 87.7614 444.861 88.362 444.808C88.9449 444.737 89.4749 445.179 89.5455 445.761C89.5455 445.761 89.5455 445.761 89.5455 445.779V445.797Z" fill="#263238"/>
<path d="M91.4708 441.983C91.3472 442.124 90.464 441.524 89.2628 441.559C88.0617 441.594 87.1961 442.212 87.0548 442.089C86.9135 441.965 87.1255 441.753 87.4964 441.471C88.0087 441.1 88.6269 440.888 89.2452 440.87C89.8634 440.853 90.4816 441.029 90.9939 441.382C91.3825 441.647 91.5238 441.912 91.4532 441.983H91.4708Z" fill="#263238"/>
<path d="M77.958 445.797C77.9756 446.397 77.5164 446.909 76.9158 446.944C76.3329 447.015 75.803 446.591 75.75 446.008C75.75 446.008 75.75 446.008 75.75 445.991C75.7323 445.39 76.1916 444.878 76.7922 444.825C77.3751 444.755 77.905 445.179 77.958 445.761C77.958 445.761 77.958 445.779 77.958 445.797Z" fill="#263238"/>
<path d="M79.6715 442.53C79.5302 442.671 78.6646 442.071 77.4635 442.106C76.2623 442.141 75.3968 442.777 75.2555 442.636C75.1142 442.495 75.3261 442.3 75.6971 442.018C76.2093 441.647 76.8099 441.435 77.4458 441.418C78.0641 441.4 78.6823 441.576 79.1946 441.93C79.5832 442.194 79.7245 442.459 79.6538 442.53H79.6715Z" fill="#263238"/>
<path d="M84.2814 451.305C84.8997 451.093 85.5533 450.952 86.2245 450.899C86.5248 450.864 86.8251 450.793 86.8604 450.581C86.8604 450.264 86.7897 449.946 86.6308 449.681C86.3128 448.939 85.9948 448.18 85.6592 447.368C84.3168 444.084 83.3099 441.382 83.4512 441.329C83.5925 441.276 84.7937 443.889 86.1362 447.191C86.4541 448.004 86.7721 448.78 87.0724 449.522C87.2843 449.893 87.3373 450.317 87.2667 450.723C87.196 450.952 87.0017 451.111 86.7721 451.182C86.6131 451.235 86.4365 451.27 86.2598 451.27C85.6063 451.358 84.935 451.376 84.2814 451.305Z" fill="#263238"/>
<path d="M85.5185 465.484C81.4205 465.661 77.3578 464.707 73.772 462.712C73.772 462.712 76.7749 468.574 85.4479 467.55L85.5185 465.502V465.484Z" fill="#7C4B43"/>
<path d="M84.1757 454.166C83.6104 453.371 82.6743 452.912 81.7027 452.948C81.0668 452.965 80.4839 453.318 80.1483 453.848C79.8127 454.466 79.848 455.208 80.2366 455.79C80.6959 456.391 81.4731 456.656 82.1973 456.444C82.8686 456.214 83.4515 455.808 83.9284 455.296C84.0874 455.172 84.211 455.013 84.2994 454.837C84.3877 454.643 84.37 454.413 84.2464 454.237" fill="#7C4B43"/>
<path d="M80.7842 452.224C80.9785 452.224 81.0138 453.513 82.162 454.431C83.3102 455.349 84.688 455.172 84.7057 455.331C84.7234 455.49 84.4053 455.596 83.8224 455.632C83.0629 455.667 82.3211 455.42 81.7028 454.961C81.1199 454.519 80.7313 453.848 80.6253 453.124C80.5547 452.542 80.6782 452.241 80.7842 452.241V452.224Z" fill="#263238"/>
<path d="M80.0599 437.568C79.954 437.904 78.7528 437.78 77.3397 437.992C75.9266 438.204 74.8137 438.61 74.6018 438.328C74.5135 438.186 74.7077 437.869 75.167 437.551C75.7676 437.145 76.4565 436.897 77.1631 436.809C77.8873 436.703 78.6115 436.756 79.3004 437.003C79.8303 437.162 80.0953 437.409 80.0423 437.568H80.0599Z" fill="#263238"/>
<path d="M90.9588 437.851C90.7468 438.133 89.9166 437.851 88.9274 437.886C87.9382 437.921 87.0904 438.116 86.8961 437.851C86.8077 437.71 86.9314 437.445 87.2846 437.162C88.2738 436.491 89.5633 436.491 90.5525 437.162C90.8881 437.427 91.0118 437.71 90.9411 437.851H90.9588Z" fill="#263238"/>
<path d="M98.7663 436.385C98.413 435.061 97.6005 433.896 96.47 433.101C95.8517 432.695 95.1098 432.448 94.5269 431.971C93.2728 430.965 92.9725 429.199 92.1953 427.769C91.1708 425.915 89.2984 424.679 87.1964 424.449C85.4653 424.273 83.6989 424.785 82.0208 424.361C80.7843 424.043 79.6892 423.231 78.435 423.001C75.9797 422.524 73.7011 424.29 71.917 426.038C71.917 427.786 73.3125 428.969 74.6549 430.082C76.0327 431.212 77.8344 431.688 79.5832 431.388C80.9256 431.141 82.3918 430.47 83.5399 431.176C84.6881 431.883 84.8117 433.754 85.8892 434.69C87.4437 436.032 89.8813 434.778 91.8597 435.361C93.3788 435.803 94.315 437.25 95.3218 438.469C96.3287 439.687 97.8301 440.852 99.3492 440.393C99.3139 439.034 99.1019 437.674 98.7486 436.35L98.7663 436.385Z" fill="#263238"/>
<path d="M80.3606 429.005C79.2654 428.687 77.0221 427.98 76.4215 427.027C75.2204 424.926 72.9771 423.655 70.5571 423.672C68.1018 423.866 66.0704 425.667 65.5758 428.069C62.6613 428.175 60.0293 429.87 58.7222 432.465C58.5456 432.801 58.4043 433.136 58.2806 433.489C57.4151 435.043 57.2738 436.915 57.9097 438.592C58.2983 439.581 58.9342 440.694 58.4396 441.629C57.945 442.565 56.6025 442.601 55.578 442.954C53.7586 443.642 52.6811 445.532 53.0344 447.439C53.2817 448.074 53.3877 448.745 53.3524 449.416C53.1051 450.069 52.6988 450.67 52.1689 451.129C50.3848 453.248 50.6674 456.408 52.7871 458.192C53.4583 458.757 54.2532 459.128 55.1011 459.286C55.896 459.322 56.6732 459.498 57.3974 459.816C58.1746 460.293 58.5102 461.229 59.0578 461.953C60.1707 463.365 62.0254 463.948 63.7388 463.418C64.0744 463.312 64.3924 463.136 64.675 462.941C65.3286 463.789 66.3707 464.23 67.4306 464.124L67.1126 445.779C67.3246 446.238 67.7309 446.556 68.2254 446.644C71.1577 447.315 71.5993 441.259 70.9457 439.616C72.0585 438.716 73.0301 437.657 73.8779 436.509C74.8141 434.673 75.2911 432.624 75.2204 430.558C76.2979 430.629 80.8199 429.146 80.343 429.005H80.3606Z" fill="#263238"/>
<path d="M67.9421 447.28C67.8538 445.408 65.5751 445.02 63.95 445.955C63.0668 446.467 62.3779 447.492 62.4839 449.469C62.6959 454.749 67.9598 453.442 67.9598 453.283C67.9598 453.124 68.0481 449.451 67.9598 447.28H67.9421Z" fill="#AB6E65"/>
<path d="M66.2469 451.358C66.2469 451.358 66.1585 451.429 66.0172 451.5C65.7876 451.588 65.5403 451.588 65.3283 451.5C64.6218 451.094 64.1802 450.334 64.1978 449.504C64.1625 449.045 64.2331 448.604 64.4098 448.18C64.4981 447.845 64.7454 447.562 65.0634 447.439C65.2753 447.368 65.505 447.474 65.611 447.668C65.6993 447.809 65.6639 447.915 65.6993 447.933C65.7346 447.951 65.8053 447.845 65.7523 447.633C65.7169 447.509 65.6286 447.386 65.5226 447.315C65.3813 447.209 65.187 447.174 65.0104 447.209C64.5688 447.315 64.2332 447.633 64.0918 448.057C63.8975 448.516 63.8092 449.028 63.8269 449.522C63.9152 450.582 64.4804 451.553 65.293 451.729C65.5756 451.8 65.8936 451.729 66.1232 451.553C66.2468 451.5 66.2822 451.376 66.2469 451.376V451.358Z" fill="#7C4B43"/>
<path d="M73.1009 427.592C72.6946 427.804 72.3413 428.104 72.0587 428.475C71.4405 429.605 71.3168 430.912 71.6701 432.148V432.271H71.5465C70.0097 432.677 68.7555 433.79 68.155 435.273C67.996 435.679 67.89 436.12 67.8723 436.562C67.8723 437.039 67.943 437.498 68.049 437.957C68.1549 438.433 68.2256 438.928 68.2433 439.422C68.2786 439.97 68.1373 440.517 67.8193 440.976C67.1305 441.841 66.2296 442.53 65.2051 442.936C64.3042 443.325 63.474 443.872 62.7498 444.543C61.5663 445.708 60.8597 447.28 60.7714 448.939C60.7361 450.069 61.001 451.2 61.5133 452.206C61.8666 452.948 62.1669 453.265 62.1315 453.283C62.0962 453.301 62.0432 453.195 61.9019 453.036C61.7076 452.789 61.5309 452.524 61.372 452.259C59.9235 449.628 60.4005 446.362 62.5378 444.26C63.2797 443.554 64.1276 442.989 65.0638 442.565C66.0353 442.177 66.8831 441.541 67.5367 440.711C68.1196 439.917 67.8547 438.875 67.7134 437.921C67.6074 437.445 67.5544 436.95 67.5544 436.456C67.572 435.979 67.678 435.502 67.8547 435.061C68.5082 433.49 69.8684 432.324 71.5288 431.918L71.4228 432.095C71.1225 430.47 71.3521 429.04 71.9527 428.298C72.1647 428.016 72.4473 427.786 72.7829 427.627C72.8889 427.592 72.9949 427.574 73.1185 427.574L73.1009 427.592Z" fill="#455A64"/>
<path d="M64.2861 453.336C64.6924 452.895 65.187 452.559 65.7523 452.347H65.6463C65.7522 452.33 65.8582 452.312 65.9642 452.294C66.3528 452.188 66.7768 452.241 67.1301 452.435C67.7836 452.665 68.3135 453.142 68.6492 453.76C69.1614 454.872 69.0201 456.179 68.2605 457.15C67.5363 458.333 65.9819 458.704 64.8161 457.98C64.2155 457.609 63.7915 456.991 63.6679 456.285C63.3499 455.261 63.5972 454.148 64.3038 453.336H64.2861Z" fill="#455A64"/>
</g>
<path d="M57.2905 381.878H183.606C189.859 381.878 194.946 376.828 194.964 370.56V333.887L208.901 321.527H57.3082C51.0374 321.527 45.9502 326.612 45.9502 332.88V370.525C45.9502 376.775 51.0021 381.861 57.2728 381.878H57.3082H57.2905Z" fill="#EBEBEB"/>
<path d="M177.936 339.449C177.936 339.696 151.935 339.872 119.839 339.872C87.7436 339.872 61.7422 339.696 61.7422 339.449C61.7422 339.201 87.7436 339.025 119.839 339.025C151.935 339.025 177.936 339.219 177.936 339.449Z" fill="white"/>
<path d="M177.936 349.266C177.936 349.513 151.935 349.69 119.839 349.69C87.7436 349.69 61.7422 349.513 61.7422 349.266C61.7422 349.019 87.7436 348.842 119.839 348.842C151.935 348.842 177.936 349.036 177.936 349.266Z" fill="white"/>
<path d="M177.936 359.065C177.936 359.295 151.935 359.489 119.839 359.489C87.7436 359.489 61.7422 359.295 61.7422 359.065C61.7422 358.836 87.7436 358.641 119.839 358.641C151.935 358.641 177.936 358.836 177.936 359.065Z" fill="white"/>
<path d="M177.936 368.883C177.936 369.112 151.935 369.306 119.839 369.306C87.7436 369.306 61.7422 369.112 61.7422 368.883C61.7422 368.653 87.7436 368.459 119.839 368.459C151.935 368.459 177.936 368.635 177.936 368.883Z" fill="white"/>
<path d="M259.862 381.225C280.309 381.225 296.885 364.655 296.885 344.216C296.885 323.776 280.309 307.207 259.862 307.207C239.414 307.207 222.838 323.776 222.838 344.216C222.838 364.655 239.414 381.225 259.862 381.225Z" fill="#0386B7"/>
<mask id="mask2_63_396" style="mask-type:luminance" maskUnits="userSpaceOnUse" x="222" y="307" width="75" height="75">
<path d="M259.862 381.225C280.309 381.225 296.885 364.655 296.885 344.216C296.885 323.776 280.309 307.207 259.862 307.207C239.414 307.207 222.838 323.776 222.838 344.216C222.838 364.655 239.414 381.225 259.862 381.225Z" fill="white"/>
</mask>
<g mask="url(#mask2_63_396)">
<path d="M287.312 381.808C288.742 373.668 288.884 367.241 288.884 367.117C288.884 367.117 285.739 360.036 261.398 360.301C237.057 360.566 233.913 367.117 233.913 367.117C233.913 367.117 233.984 373.597 235.397 381.808H287.294H287.312Z" fill="white"/>
<path d="M268.676 381.807C267.387 378.7 264.437 376.404 260.851 376.139C256.788 375.839 253.149 378.241 251.683 381.807H268.676Z" fill="#263238"/>
<path d="M265.885 381.808C264.79 380.042 262.9 378.806 260.674 378.629C258.095 378.435 255.746 379.742 254.474 381.808H265.885Z" fill="white"/>
<path d="M233.808 367.081H233.949L234.355 367.223L235.91 367.77L237.022 368.176L238.383 368.6C239.354 368.882 240.432 369.271 241.686 369.5L243.629 369.995C244.3 370.171 245.007 370.295 245.748 370.454C247.197 370.789 248.787 371.019 250.447 371.284C257.672 372.325 265.02 372.325 272.244 371.284C273.905 371.019 275.495 370.789 276.943 370.454C277.685 370.295 278.391 370.171 279.063 369.995L281.006 369.5C282.242 369.218 283.337 368.829 284.309 368.6C284.786 368.459 285.21 368.335 285.651 368.194L286.764 367.788L288.301 367.24L288.707 367.099L288.849 367.046C288.849 367.046 288.796 367.046 288.707 367.117L288.301 367.276L286.764 367.841L285.651 368.264C285.245 368.406 284.75 368.529 284.309 368.706C283.337 368.988 282.26 369.377 281.006 369.677L279.063 370.189C278.391 370.366 277.685 370.489 276.943 370.666C275.477 371.001 273.905 371.231 272.244 371.513C265.002 372.573 257.636 372.573 250.376 371.513C248.698 371.248 247.126 371.001 245.66 370.666C244.936 370.507 244.212 370.383 243.54 370.207L241.597 369.695C240.361 369.394 239.266 369.006 238.294 368.706L236.952 368.282L235.839 367.858L234.302 367.276L233.896 367.117H233.772L233.808 367.081Z" fill="#263238"/>
<g opacity="0.3">
<path d="M233.913 367.117C233.913 367.117 237.057 360.584 261.398 360.301C285.739 360.019 288.884 367.117 288.884 367.117C288.884 367.117 264.348 379.212 233.913 367.117Z" fill="black"/>
</g>
<path d="M235.114 374.515C235.22 375.981 235.415 377.693 235.697 379.6C235.803 380.307 235.927 381.048 236.051 381.808H236.227C236.086 381.048 235.962 380.289 235.856 379.565C235.591 377.658 235.362 375.928 235.22 374.48C235.15 373.756 235.097 373.085 235.044 372.52C234.991 371.955 235.009 371.408 234.938 371.037C234.867 370.666 234.867 370.366 234.867 370.136V371.054C234.885 371.461 234.92 371.955 234.956 372.538C234.991 373.12 235.044 373.774 235.114 374.498V374.515Z" fill="#263238"/>
<path d="M250.553 381.807C250.677 381.49 250.8 381.172 250.942 380.854C251.313 380.042 251.789 379.282 252.372 378.611C252.779 378.135 253.044 377.888 253.026 377.87C253.026 377.87 252.955 377.923 252.832 378.029C252.655 378.188 252.478 378.364 252.319 378.541C251.719 379.212 251.207 379.971 250.818 380.783C250.659 381.119 250.518 381.454 250.394 381.79H250.553V381.807Z" fill="#263238"/>
<path d="M259.544 317.695C259.544 317.695 236.28 317.412 232.641 337.577C229.003 357.741 248.627 358.094 254.297 358.465C256.876 358.641 262.352 358.659 267.192 358.571C277.914 358.394 285.492 356.311 288.089 346.37C288.389 345.204 288.583 344.004 288.672 342.803C289.29 331.909 281.906 317.165 259.544 317.712V317.695ZM237.252 343.103C237.252 343.103 237.252 342.98 237.252 342.927C238.064 342.044 239.23 341.496 240.52 341.496C242.975 341.496 244.953 343.492 244.953 345.928C244.953 348.365 243.046 350.29 240.661 350.36C238.488 348.489 237.234 346.087 237.234 343.103H237.252ZM280.211 350.29C278.162 349.901 276.625 348.1 276.625 345.928C276.625 343.474 278.621 341.496 281.058 341.496C281.959 341.496 282.79 341.761 283.496 342.22C283.514 342.521 283.531 342.803 283.531 343.103C283.531 346.052 282.313 348.436 280.211 350.29Z" fill="white"/>
<path d="M276.625 345.946C276.625 348.1 278.162 349.901 280.211 350.307C276.166 353.874 268.8 355.481 260.392 355.481C251.983 355.481 244.741 353.892 240.661 350.378C243.045 350.307 244.953 348.347 244.953 345.946C244.953 343.545 242.957 341.514 240.52 341.514C239.23 341.514 238.064 342.061 237.252 342.944C237.393 334.416 247.709 327.547 260.392 327.547C273.074 327.547 282.825 334.045 283.496 342.256C282.789 341.797 281.959 341.532 281.058 341.532C278.603 341.532 276.625 343.527 276.625 345.964V345.946Z" fill="#263238"/>
<path d="M251.454 338.742C251.242 339.854 250.146 340.596 249.034 340.366C247.921 340.154 247.179 339.06 247.408 337.947C247.638 336.835 248.716 336.093 249.828 336.323C250.941 336.552 251.665 337.629 251.454 338.742Z" fill="white"/>
<path d="M271.449 338.354C271.237 339.466 270.142 340.208 269.029 339.978C267.917 339.766 267.175 338.671 267.404 337.559C267.616 336.447 268.711 335.705 269.824 335.935C270.937 336.146 271.661 337.241 271.449 338.354Z" fill="white"/>
<path d="M256.612 319.213H256.276C256.064 319.213 255.746 319.213 255.375 319.284C254.227 319.407 253.079 319.584 251.948 319.849C250.27 320.237 248.645 320.82 247.073 321.544C245.165 322.444 243.364 323.574 241.739 324.916C238.789 327.388 236.439 330.478 234.867 333.992C234.39 335.051 233.984 336.146 233.666 337.259C233.542 337.665 233.472 337.965 233.419 338.159L233.348 338.389L233.401 338.141C233.454 337.93 233.507 337.612 233.613 337.241C233.896 336.111 234.267 335.016 234.726 333.939C235.415 332.332 236.263 330.814 237.27 329.401C240.785 324.493 245.996 321.049 251.878 319.743C253.026 319.496 254.192 319.319 255.358 319.231H256.594V319.195L256.612 319.213Z" fill="#263238"/>
<path d="M233.843 347.111C233.701 346.882 233.578 346.635 233.507 346.387C233.295 345.805 233.136 345.187 233.03 344.569C232.942 343.933 232.889 343.297 232.906 342.662C232.906 342.397 232.924 342.132 232.995 341.867C233.065 341.867 232.995 343.086 233.207 344.586C233.419 346.087 233.878 347.094 233.825 347.111H233.843Z" fill="#263238"/>
<path d="M253.874 357.035H251.436C250.553 357.035 249.67 356.964 248.786 356.876C247.709 356.752 246.631 356.558 245.572 356.328C244.512 356.081 243.47 355.781 242.463 355.428C241.632 355.128 240.82 354.774 240.025 354.386C239.672 354.227 239.371 354.051 239.124 353.909C238.877 353.768 238.63 353.644 238.453 353.538L238.029 353.291L237.888 353.185C237.888 353.185 237.941 353.185 238.047 353.256L238.488 353.468C238.665 353.574 238.895 353.697 239.177 353.821C239.46 353.945 239.742 354.103 240.078 354.262C240.767 354.58 241.579 354.933 242.516 355.269C243.54 355.622 244.565 355.922 245.625 356.169C246.684 356.417 247.744 356.593 248.804 356.734C249.793 356.858 250.676 356.911 251.436 356.929H253.874V357.052V357.035Z" fill="#263238"/>
<path d="M282.33 370.03H282.242L281.977 370.136L280.97 370.507C280.529 370.666 279.999 370.842 279.363 371.037C278.727 371.231 278.003 371.46 277.208 371.655L275.954 371.99L274.576 372.308C273.675 372.537 272.598 372.714 271.52 372.926C269.171 373.332 266.786 373.597 264.401 373.756C262.017 373.879 259.632 373.879 257.248 373.756C256.152 373.685 255.11 373.632 254.139 373.526L252.726 373.385L251.418 373.208C250.588 373.103 249.864 372.961 249.21 372.855C248.557 372.749 248.009 372.626 247.55 372.52L246.508 372.29L246.243 372.22H246.155H246.261L246.525 372.273L247.585 372.467C248.045 372.555 248.592 372.661 249.246 372.749C249.899 372.838 250.641 372.997 251.454 373.085L252.761 373.244C253.202 373.297 253.662 373.332 254.156 373.385C255.128 373.491 256.17 373.544 257.265 373.597C259.455 373.685 261.875 373.685 264.401 373.544C266.927 373.403 269.33 373.085 271.485 372.732C272.562 372.537 273.587 372.361 274.541 372.131C275.017 372.025 275.441 371.937 275.918 371.831L277.173 371.513C277.985 371.319 278.692 371.09 279.328 370.913C279.963 370.736 280.511 370.56 280.953 370.419L281.977 370.083L282.242 369.995L282.33 370.03Z" fill="#263238"/>
<path d="M244.971 345.946C244.971 348.347 243.063 350.307 240.679 350.378C238.506 348.506 237.252 346.105 237.252 343.121C237.252 343.068 237.252 342.997 237.252 342.944C238.064 342.061 239.23 341.514 240.52 341.514C242.975 341.514 244.953 343.509 244.953 345.946H244.971Z" fill="#FCB813"/>
<path d="M283.549 343.121C283.549 346.069 282.331 348.453 280.229 350.307C278.18 349.919 276.643 348.118 276.643 345.946C276.643 343.492 278.639 341.514 281.077 341.514C281.977 341.514 282.808 341.779 283.514 342.238C283.532 342.538 283.549 342.821 283.549 343.121Z" fill="#FCB813"/>
<path d="M254.757 345.31L259.562 348.241L264.349 345.328L259.88 350.431L259.562 350.802L259.244 350.431L254.757 345.31Z" fill="white"/>
<path d="M256.029 316C256.029 316 242.145 304.823 249.564 287.289L256.029 316Z" fill="#FCB813"/>
<path d="M258.272 313.316V290.273C258.272 290.273 265.391 301.998 258.272 313.316Z" fill="#FCB813"/>
<path d="M262.494 313.316L267.616 301.662C267.616 301.662 271.255 311.02 262.494 313.316Z" fill="#FCB813"/>
</g>
<path d="M57.2905 587.177H183.606C189.859 587.177 194.946 582.127 194.964 575.859V539.185L208.901 526.825H57.3082C51.0374 526.825 45.9502 531.91 45.9502 538.178V575.823C45.9502 582.074 51.0021 587.159 57.2728 587.177H57.3082H57.2905Z" fill="#EBEBEB"/>
<path d="M177.936 544.694C177.936 544.941 151.935 545.118 119.839 545.118C87.7436 545.118 61.7422 544.941 61.7422 544.694C61.7422 544.447 87.7436 544.27 119.839 544.27C151.935 544.27 177.936 544.517 177.936 544.694Z" fill="white"/>
<path d="M177.936 554.6C177.936 554.829 151.935 555.023 119.839 555.023C87.7436 555.023 61.7422 554.829 61.7422 554.6C61.7422 554.37 87.7436 554.176 119.839 554.176C151.935 554.176 177.936 554.317 177.936 554.6Z" fill="white"/>
<path d="M177.936 564.364C177.936 564.593 151.935 564.787 119.839 564.787C87.7436 564.787 61.7422 564.593 61.7422 564.364C61.7422 564.134 87.7436 563.94 119.839 563.94C151.935 563.94 177.936 564.117 177.936 564.364Z" fill="white"/>
<path d="M177.936 574.163C177.936 574.393 151.935 574.587 119.839 574.587C87.7436 574.587 61.7422 574.393 61.7422 574.163C61.7422 573.934 87.7436 573.74 119.839 573.74C151.935 573.74 177.936 573.916 177.936 574.163Z" fill="white"/>
<path d="M259.862 587.018C280.309 587.018 296.885 570.448 296.885 550.009C296.885 529.569 280.309 513 259.862 513C239.414 513 222.838 529.569 222.838 550.009C222.838 570.448 239.414 587.018 259.862 587.018Z" fill="#0386B7"/>
<mask id="mask3_63_396" style="mask-type:luminance" maskUnits="userSpaceOnUse" x="222" y="513" width="75" height="75">
<path d="M259.862 587.018C280.309 587.018 296.885 570.448 296.885 550.009C296.885 529.569 280.309 513 259.862 513C239.414 513 222.838 529.569 222.838 550.009C222.838 570.448 239.414 587.018 259.862 587.018Z" fill="white"/>
</mask>
<g mask="url(#mask3_63_396)">
<path d="M287.312 587.601C288.742 579.461 288.884 573.034 288.884 572.91C288.884 572.91 285.739 565.83 261.398 566.094C237.057 566.359 233.913 572.91 233.913 572.91C233.913 572.91 233.984 579.39 235.397 587.601H287.294H287.312Z" fill="white"/>
<path d="M268.676 587.601C267.387 584.493 264.437 582.198 260.851 581.933C256.788 581.633 253.149 584.034 251.683 587.601H268.676Z" fill="#263238"/>
<path d="M265.885 587.601C264.79 585.835 262.9 584.599 260.674 584.422C258.095 584.228 255.746 585.535 254.474 587.601H265.885Z" fill="white"/>
<path d="M233.808 572.875H233.949L234.355 573.016L235.91 573.564L237.022 573.97L238.383 574.394C239.354 574.676 240.432 575.065 241.686 575.294L243.629 575.789C244.3 575.965 245.007 576.089 245.748 576.248C247.197 576.583 248.787 576.813 250.447 577.078C257.672 578.119 265.02 578.119 272.244 577.078C273.905 576.813 275.495 576.583 276.943 576.248C277.685 576.089 278.391 575.965 279.063 575.789L281.006 575.294C282.242 575.012 283.337 574.623 284.309 574.394C284.786 574.252 285.21 574.129 285.651 573.988L286.764 573.581L288.301 573.034L288.707 572.893L288.849 572.84C288.849 572.84 288.796 572.84 288.707 572.91L288.301 573.069L286.764 573.634L285.651 574.058C285.245 574.199 284.75 574.323 284.309 574.5C283.337 574.782 282.26 575.171 281.006 575.471L279.063 575.983C278.391 576.159 277.685 576.283 276.943 576.46C275.477 576.795 273.905 577.025 272.244 577.307C265.002 578.366 257.636 578.366 250.376 577.307C248.698 577.042 247.126 576.795 245.66 576.46C244.936 576.301 244.212 576.177 243.54 576L241.597 575.488C240.361 575.188 239.266 574.8 238.294 574.5L236.952 574.076L235.839 573.652L234.302 573.069L233.896 572.91H233.772L233.808 572.875Z" fill="#263238"/>
<g opacity="0.3">
<path d="M233.913 572.91C233.913 572.91 237.057 566.377 261.398 566.094C285.739 565.812 288.884 572.91 288.884 572.91C288.884 572.91 264.348 585.005 233.913 572.91Z" fill="black"/>
</g>
<path d="M235.114 580.291C235.22 581.756 235.415 583.469 235.697 585.376C235.803 586.082 235.927 586.824 236.051 587.583H236.227C236.086 586.824 235.962 586.064 235.856 585.34C235.591 583.434 235.362 581.703 235.22 580.255C235.15 579.531 235.097 578.86 235.044 578.295C234.991 577.73 235.009 577.183 234.938 576.812C234.867 576.441 234.867 576.141 234.867 575.912V576.83C234.885 577.236 234.92 577.73 234.956 578.313C234.991 578.896 235.044 579.549 235.114 580.273V580.291Z" fill="#263238"/>
<path d="M250.553 587.601C250.677 587.283 250.8 586.965 250.942 586.647C251.313 585.835 251.789 585.076 252.372 584.405C252.779 583.928 253.044 583.681 253.026 583.663C253.026 583.663 252.955 583.716 252.832 583.822C252.655 583.981 252.478 584.158 252.319 584.334C251.719 585.005 251.207 585.765 250.818 586.577C250.659 586.912 250.518 587.248 250.394 587.583H250.553V587.601Z" fill="#263238"/>
<path d="M259.544 523.488C259.544 523.488 236.28 523.206 232.641 543.37C229.003 563.534 248.627 563.887 254.297 564.258C256.876 564.435 262.352 564.452 267.192 564.364C277.914 564.188 285.492 562.104 288.089 552.163C288.389 550.998 288.583 549.797 288.672 548.596C289.29 537.702 281.906 522.958 259.544 523.506V523.488ZM237.252 548.896C237.252 548.896 237.252 548.773 237.252 548.72C238.064 547.837 239.23 547.29 240.52 547.29C242.975 547.29 244.953 549.285 244.953 551.722C244.953 554.158 243.046 556.083 240.661 556.154C238.488 554.282 237.234 551.881 237.234 548.896H237.252ZM280.211 556.083C278.162 555.694 276.625 553.893 276.625 551.722C276.625 549.267 278.621 547.29 281.058 547.29C281.959 547.29 282.79 547.555 283.496 548.014C283.514 548.314 283.531 548.596 283.531 548.896C283.531 551.845 282.313 554.229 280.211 556.083Z" fill="white"/>
<path d="M276.625 551.721C276.625 553.876 278.162 555.677 280.211 556.083C276.166 559.649 268.8 561.256 260.392 561.256C251.983 561.256 244.741 559.667 240.661 556.153C243.045 556.083 244.953 554.123 244.953 551.721C244.953 549.32 242.957 547.289 240.52 547.289C239.23 547.289 238.064 547.837 237.252 548.72C237.393 540.191 247.709 533.323 260.392 533.323C273.074 533.323 282.825 539.821 283.496 548.031C282.789 547.572 281.959 547.307 281.058 547.307C278.603 547.307 276.625 549.302 276.625 551.739V551.721Z" fill="#263238"/>
<path d="M251.454 544.518C251.242 545.63 250.146 546.372 249.034 546.142C247.921 545.93 247.179 544.835 247.408 543.723C247.638 542.611 248.716 541.869 249.828 542.099C250.941 542.328 251.665 543.405 251.454 544.518Z" fill="white"/>
<path d="M271.449 544.147C271.237 545.259 270.142 546.001 269.029 545.771C267.917 545.559 267.175 544.465 267.404 543.352C267.616 542.24 268.711 541.498 269.824 541.728C270.937 541.94 271.661 543.034 271.449 544.147Z" fill="white"/>
<path d="M256.612 524.989H256.276C256.064 524.989 255.746 524.989 255.375 525.06C254.227 525.183 253.079 525.36 251.948 525.625C250.27 526.013 248.645 526.596 247.073 527.32C245.165 528.22 243.364 529.35 241.739 530.692C238.789 533.164 236.439 536.254 234.867 539.768C234.39 540.827 233.984 541.922 233.666 543.034C233.542 543.44 233.472 543.741 233.419 543.935L233.348 544.164L233.401 543.917C233.454 543.705 233.507 543.387 233.613 543.017C233.896 541.887 234.267 540.792 234.726 539.715C235.415 538.108 236.263 536.59 237.27 535.177C240.785 530.268 245.996 526.825 251.878 525.519C253.026 525.271 254.192 525.095 255.358 525.007H256.594V524.971L256.612 524.989Z" fill="#263238"/>
<path d="M233.843 552.887C233.701 552.658 233.578 552.41 233.507 552.163C233.295 551.581 233.136 550.963 233.03 550.345C232.942 549.709 232.889 549.073 232.906 548.438C232.906 548.173 232.924 547.908 232.995 547.643C233.065 547.643 232.995 548.861 233.207 550.362C233.419 551.863 233.878 552.87 233.825 552.887H233.843Z" fill="#263238"/>
<path d="M253.874 562.81H251.436C250.553 562.81 249.67 562.74 248.786 562.651C247.709 562.528 246.631 562.333 245.572 562.104C244.512 561.857 243.47 561.557 242.463 561.203C241.632 560.903 240.82 560.55 240.025 560.162C239.672 560.003 239.371 559.826 239.124 559.685C238.877 559.544 238.63 559.42 238.453 559.314L238.029 559.067L237.888 558.961C237.888 558.961 237.941 558.961 238.047 559.032L238.488 559.243C238.665 559.349 238.895 559.473 239.177 559.597C239.46 559.72 239.742 559.879 240.078 560.038C240.767 560.356 241.579 560.709 242.516 561.045C243.54 561.398 244.565 561.698 245.625 561.945C246.684 562.192 247.744 562.369 248.804 562.51C249.793 562.634 250.676 562.687 251.436 562.704H253.874V562.828V562.81Z" fill="#263238"/>
<path d="M282.33 575.806H282.242L281.977 575.912L280.97 576.283C280.529 576.441 279.999 576.618 279.363 576.812C278.727 577.006 278.003 577.236 277.208 577.43L275.954 577.766L274.576 578.084C273.675 578.313 272.598 578.49 271.52 578.702C269.171 579.108 266.786 579.373 264.401 579.531C262.017 579.655 259.632 579.655 257.248 579.531C256.152 579.461 255.11 579.408 254.139 579.302L252.726 579.161L251.418 578.984C250.588 578.878 249.864 578.737 249.21 578.631C248.557 578.525 248.009 578.401 247.55 578.295L246.508 578.066L246.243 577.995H246.155H246.261L246.525 578.048L247.585 578.242C248.045 578.331 248.592 578.437 249.246 578.525C249.899 578.613 250.641 578.772 251.454 578.86L252.761 579.019C253.202 579.072 253.662 579.108 254.156 579.161C255.128 579.267 256.17 579.32 257.265 579.373C259.455 579.461 261.875 579.461 264.401 579.32C266.927 579.178 269.33 578.86 271.485 578.507C272.562 578.313 273.587 578.137 274.541 577.907C275.017 577.801 275.441 577.713 275.918 577.607L277.173 577.289C277.985 577.095 278.692 576.865 279.328 576.689C279.963 576.512 280.511 576.336 280.953 576.194L281.977 575.859L282.242 575.771L282.33 575.806Z" fill="#263238"/>
<path d="M244.971 551.722C244.971 554.123 243.063 556.083 240.679 556.154C238.506 554.282 237.252 551.881 237.252 548.897C237.252 548.844 237.252 548.773 237.252 548.72C238.064 547.837 239.23 547.29 240.52 547.29C242.975 547.29 244.953 549.285 244.953 551.722H244.971Z" fill="#FCB813"/>
<path d="M283.549 548.897C283.549 551.846 282.331 554.229 280.229 556.083C278.18 555.695 276.643 553.894 276.643 551.722C276.643 549.268 278.639 547.29 281.077 547.29C281.977 547.29 282.808 547.555 283.514 548.014C283.532 548.314 283.549 548.597 283.549 548.897Z" fill="#FCB813"/>
<path d="M254.757 551.086L259.562 554.035L264.349 551.104L259.88 556.224L259.562 556.578L259.244 556.224L254.757 551.086Z" fill="white"/>
<path d="M256.029 521.793C256.029 521.793 242.145 510.616 249.564 493.083L256.029 521.793Z" fill="#FCB813"/>
<path d="M258.272 519.091V496.049C258.272 496.049 265.391 507.773 258.272 519.091Z" fill="#FCB813"/>
<path d="M262.494 519.091L267.616 507.438C267.616 507.438 271.255 516.796 262.494 519.091Z" fill="#FCB813"/>
</g>
<path d="M139.375 100.143H134.006L133.016 102.615H129.36L134.959 89.937H138.492L144.109 102.615H140.382L139.393 100.143H139.375ZM138.315 97.4942L136.69 93.4331L135.065 97.4942H138.333H138.315Z" fill="white"/>
<path d="M146.017 102.491C145.223 102.297 144.587 102.067 144.092 101.749L145.117 99.401C145.558 99.6835 146.088 99.8954 146.706 100.054C147.325 100.213 147.925 100.302 148.543 100.302C149.091 100.302 149.497 100.249 149.727 100.125C149.956 100.019 150.08 99.8424 150.08 99.6306C150.08 99.4187 149.939 99.2598 149.656 99.1715C149.374 99.0832 148.914 98.9949 148.314 98.9066C147.537 98.8183 146.865 98.6771 146.318 98.5182C145.77 98.3592 145.293 98.0767 144.887 97.653C144.481 97.2292 144.286 96.6465 144.286 95.8696C144.286 95.2339 144.481 94.6866 144.852 94.1922C145.223 93.6978 145.77 93.3093 146.494 93.0268C147.219 92.7443 148.066 92.603 149.073 92.603C149.78 92.603 150.486 92.6737 151.193 92.8149C151.9 92.9562 152.482 93.1681 152.942 93.4329L151.917 95.7637C151.052 95.2869 150.098 95.0397 149.091 95.0397C148.543 95.0397 148.155 95.1103 147.89 95.2339C147.625 95.3575 147.501 95.5341 147.501 95.7284C147.501 95.9579 147.643 96.1168 147.925 96.2051C148.208 96.2934 148.667 96.3817 149.303 96.4876C150.115 96.6112 150.787 96.7525 151.317 96.9114C151.847 97.0703 152.306 97.3528 152.694 97.7766C153.083 98.2003 153.277 98.783 153.277 99.5246C153.277 100.143 153.083 100.69 152.712 101.184C152.341 101.679 151.794 102.05 151.052 102.332C150.327 102.615 149.444 102.756 148.42 102.756C147.59 102.756 146.795 102.668 146 102.473L146.017 102.491Z" fill="white"/>
<path d="M155.927 102.491C155.132 102.297 154.496 102.067 154.001 101.749L155.026 99.401C155.467 99.6835 155.997 99.8954 156.615 100.054C157.234 100.213 157.834 100.302 158.453 100.302C159 100.302 159.406 100.249 159.636 100.125C159.866 100.019 159.989 99.8424 159.989 99.6306C159.989 99.4187 159.848 99.2598 159.565 99.1715C159.283 99.0832 158.823 98.9949 158.223 98.9066C157.446 98.8183 156.774 98.6771 156.227 98.5182C155.679 98.3592 155.202 98.0767 154.796 97.653C154.39 97.2292 154.196 96.6465 154.196 95.8696C154.196 95.2339 154.39 94.6866 154.761 94.1922C155.132 93.6978 155.679 93.3093 156.404 93.0268C157.128 92.7443 157.976 92.603 158.982 92.603C159.689 92.603 160.396 92.6737 161.102 92.8149C161.809 92.9562 162.392 93.1681 162.851 93.4329L161.826 95.7637C160.961 95.2869 160.007 95.0397 159 95.0397C158.453 95.0397 158.064 95.1103 157.799 95.2339C157.534 95.3575 157.41 95.5341 157.41 95.7284C157.41 95.9579 157.552 96.1168 157.834 96.2051C158.117 96.2934 158.576 96.3817 159.212 96.4876C160.025 96.6112 160.696 96.7525 161.226 96.9114C161.756 97.0703 162.215 97.3528 162.604 97.7766C162.992 98.2003 163.186 98.783 163.186 99.5246C163.186 100.143 162.992 100.69 162.621 101.184C162.25 101.679 161.703 102.05 160.961 102.332C160.237 102.615 159.353 102.756 158.329 102.756C157.499 102.756 156.704 102.668 155.909 102.473L155.927 102.491Z" fill="white"/>
<path d="M164.9 91.173C164.511 90.8198 164.317 90.3961 164.317 89.8664C164.317 89.3367 164.511 88.9129 164.9 88.5597C165.289 88.2066 165.801 88.03 166.419 88.03C167.037 88.03 167.55 88.1889 167.938 88.5244C168.327 88.8599 168.521 89.2837 168.521 89.7957C168.521 90.3078 168.327 90.7845 167.938 91.1377C167.55 91.4908 167.037 91.6674 166.419 91.6674C165.801 91.6674 165.289 91.4908 164.9 91.1377V91.173ZM164.706 92.7798H168.15V102.597H164.706V92.7798Z" fill="white"/>
<path d="M171.506 102.491C170.712 102.297 170.076 102.067 169.581 101.749L170.606 99.401C171.047 99.6835 171.577 99.8954 172.195 100.054C172.814 100.213 173.414 100.302 174.032 100.302C174.58 100.302 174.986 100.249 175.216 100.125C175.446 100.019 175.569 99.8424 175.569 99.6306C175.569 99.4187 175.428 99.2598 175.145 99.1715C174.863 99.0832 174.403 98.9949 173.803 98.9066C173.026 98.8183 172.354 98.6771 171.807 98.5182C171.259 98.3592 170.782 98.0767 170.376 97.653C169.97 97.2292 169.775 96.6465 169.775 95.8696C169.775 95.2339 169.97 94.6866 170.341 94.1922C170.712 93.6978 171.259 93.3093 171.983 93.0268C172.708 92.7443 173.555 92.603 174.562 92.603C175.269 92.603 175.975 92.6737 176.682 92.8149C177.389 92.9562 177.971 93.1681 178.431 93.4329L177.406 95.7637C176.541 95.2869 175.587 95.0397 174.58 95.0397C174.032 95.0397 173.644 95.1103 173.379 95.2339C173.114 95.3575 172.99 95.5341 172.99 95.7284C172.99 95.9579 173.132 96.1168 173.414 96.2051C173.697 96.2934 174.156 96.3817 174.792 96.4876C175.604 96.6112 176.276 96.7525 176.806 96.9114C177.336 97.0703 177.795 97.3528 178.183 97.7766C178.572 98.2003 178.766 98.783 178.766 99.5246C178.766 100.143 178.572 100.69 178.201 101.184C177.83 101.679 177.283 102.05 176.541 102.332C175.816 102.615 174.933 102.756 173.909 102.756C173.079 102.756 172.284 102.668 171.489 102.473L171.506 102.491Z" fill="white"/>
<path d="M187.051 102.208C186.768 102.385 186.415 102.526 185.991 102.632C185.567 102.72 185.125 102.773 184.666 102.773C183.394 102.773 182.405 102.456 181.716 101.838C181.027 101.202 180.692 100.266 180.692 99.0301V95.7283H179.261V93.1504H180.692V90.5901H184.136V93.1504H186.379V95.7283H184.136V98.9948C184.136 99.348 184.224 99.6128 184.419 99.8247C184.613 100.019 184.86 100.125 185.178 100.125C185.584 100.125 185.92 100.019 186.22 99.8247L187.068 102.226L187.051 102.208Z" fill="white"/>
<path d="M196.289 93.7332C197.155 94.4748 197.578 95.6225 197.578 97.141V102.597H194.364V101.326C193.869 102.279 192.898 102.756 191.467 102.756C190.707 102.756 190.054 102.615 189.488 102.35C188.923 102.085 188.517 101.732 188.234 101.273C187.952 100.814 187.81 100.302 187.81 99.7189C187.81 98.7831 188.164 98.0591 188.87 97.5471C189.577 97.035 190.69 96.7702 192.173 96.7702H194.134C194.081 95.7284 193.374 95.2164 192.05 95.2164C191.573 95.2164 191.096 95.287 190.619 95.4459C190.142 95.6048 189.718 95.799 189.382 96.0639L188.217 93.7332C188.764 93.3624 189.418 93.0975 190.195 92.8856C190.972 92.6737 191.749 92.5854 192.544 92.5854C194.169 92.5854 195.424 92.9563 196.271 93.6979L196.289 93.7332ZM193.48 100.302C193.781 100.107 193.993 99.8248 194.134 99.454V98.6065H192.65C191.643 98.6065 191.149 98.942 191.149 99.5953C191.149 99.8955 191.255 100.143 191.484 100.319C191.714 100.496 192.032 100.584 192.421 100.584C192.809 100.584 193.163 100.496 193.48 100.302Z" fill="white"/>
<path d="M209.095 93.698C209.837 94.422 210.208 95.5167 210.208 96.9822V102.597H206.764V97.5473C206.764 96.2053 206.216 95.5344 205.156 95.5344C204.556 95.5344 204.096 95.7286 203.743 96.117C203.39 96.5055 203.213 97.0882 203.213 97.8474V102.597H199.769V92.7799H203.054V93.8568C203.443 93.4507 203.902 93.1507 204.432 92.9388C204.962 92.7269 205.545 92.6208 206.163 92.6208C207.382 92.6208 208.371 92.9917 209.113 93.7157L209.095 93.698Z" fill="white"/>
<path d="M219.146 102.208C218.863 102.385 218.51 102.526 218.086 102.632C217.662 102.72 217.221 102.773 216.761 102.773C215.49 102.773 214.5 102.456 213.811 101.838C213.123 101.202 212.787 100.266 212.787 99.0301V95.7283H211.356V93.1504H212.787V90.5901H216.231V93.1504H218.475V95.7283H216.231V98.9948C216.231 99.348 216.32 99.6128 216.514 99.8247C216.708 100.019 216.956 100.125 217.274 100.125C217.68 100.125 218.016 100.019 218.316 99.8247L219.164 102.226L219.146 102.208Z" fill="white"/>
</g>
<defs>
<clipPath id="clip0_63_396">
<rect width="338" height="691" fill="white"/>
</clipPath>
</defs>
</svg>
