<svg width="338" height="691" viewBox="0 0 338 691" fill="none" xmlns="http://www.w3.org/2000/svg">
<g clip-path="url(#clip0_63_396)">
<path d="M286.428 691L51.7797 690.876C23.5526 690.859 0.677734 667.975 0.677734 639.777L0.801382 51.7271C0.872038 23.4935 23.7822 0.627686 52.027 0.627686L286.676 0.768942C314.903 0.786599 337.778 23.6701 337.778 51.8684L337.654 639.918C337.654 668.134 314.779 691 286.552 691C286.517 691 286.464 691 286.428 691Z" fill="#455A64"/>
<path d="M286.358 21.4983H240.873C234.62 21.6396 229.674 26.8131 229.815 33.0637V41.3272C229.956 47.5777 225.01 52.7513 218.757 52.8925H130.066C123.831 52.7336 118.885 47.5601 119.026 41.3272V33.0637C119.168 26.8131 114.222 21.6396 107.969 21.4983H52.1504C32.4197 21.4806 16.3984 37.425 16.3278 57.1479L16.2041 631.196C16.2395 650.936 32.2607 666.916 51.9914 666.933L286.199 667.057C305.982 667.057 322.021 651.042 322.021 631.284L322.127 57.2361C322.092 37.4956 306.088 21.516 286.358 21.4983Z" fill="white"/>
<path d="M322.11 142.149V56.6358C321.756 37.1424 305.859 21.516 286.358 21.4983H240.873C234.637 21.6396 229.674 26.7954 229.815 33.046C229.815 33.046 229.815 33.046 229.815 33.0637V41.3272C229.957 47.5777 225.011 52.7513 218.758 52.8925H130.067C123.831 52.7336 118.885 47.5601 119.027 41.3272V33.0637C119.168 26.8131 114.222 21.6396 107.969 21.4983H52.1507C32.42 21.4806 16.3988 37.425 16.3281 57.1479V142.414H322.127V142.149H322.11Z" fill="#0386B7"/>
<path d="M239.954 114.869C239.954 115.098 211.869 115.293 177.053 115.293C142.237 115.293 114.151 115.098 114.151 114.869C114.151 114.639 142.237 114.427 177.053 114.427C211.869 114.427 239.954 114.622 239.954 114.869Z" fill="white"/>
<path d="M57.8202 103.409C57.6435 103.409 57.4669 103.356 57.3256 103.25L49.5711 97.5646C49.3591 97.4057 49.2355 97.1585 49.2178 96.8937C49.2178 96.6288 49.3415 96.3816 49.5711 96.2404L57.3256 90.6607C57.6965 90.3959 58.2088 90.4842 58.4737 90.855C58.7387 91.2258 58.6504 91.7202 58.2971 92.0027L51.4611 96.9643L58.2971 101.926C58.6681 102.191 58.7387 102.703 58.4737 103.074C58.3324 103.303 58.0851 103.427 57.8202 103.444V103.409Z" fill="white"/>
<path d="M139.375 100.143H134.006L133.016 102.615H129.36L134.959 89.937H138.492L144.109 102.615H140.382L139.393 100.143H139.375ZM138.315 97.4942L136.69 93.4331L135.065 97.4942H138.333H138.315Z" fill="white"/>
<path d="M146.017 102.491C145.223 102.297 144.587 102.067 144.092 101.749L145.117 99.401C145.558 99.6835 146.088 99.8954 146.706 100.054C147.325 100.213 147.925 100.302 148.543 100.302C149.091 100.302 149.497 100.249 149.727 100.125C149.956 100.019 150.08 99.8424 150.08 99.6306C150.08 99.4187 149.939 99.2598 149.656 99.1715C149.374 99.0832 148.914 98.9949 148.314 98.9066C147.537 98.8183 146.865 98.6771 146.318 98.5182C145.77 98.3592 145.293 98.0767 144.887 97.653C144.481 97.2292 144.286 96.6465 144.286 95.8696C144.286 95.2339 144.481 94.6866 144.852 94.1922C145.223 93.6978 145.77 93.3093 146.494 93.0268C147.219 92.7443 148.066 92.603 149.073 92.603C149.78 92.603 150.486 92.6737 151.193 92.8149C151.9 92.9562 152.482 93.1681 152.942 93.4329L151.917 95.7637C151.052 95.2869 150.098 95.0397 149.091 95.0397C148.543 95.0397 148.155 95.1103 147.89 95.2339C147.625 95.3575 147.501 95.5341 147.501 95.7284C147.501 95.9579 147.643 96.1168 147.925 96.2051C148.208 96.2934 148.667 96.3817 149.303 96.4876C150.115 96.6112 150.787 96.7525 151.317 96.9114C151.847 97.0703 152.306 97.3528 152.694 97.7766C153.083 98.2003 153.277 98.783 153.277 99.5246C153.277 100.143 153.083 100.69 152.712 101.184C152.341 101.679 151.794 102.05 151.052 102.332C150.327 102.615 149.444 102.756 148.42 102.756C147.59 102.756 146.795 102.668 146 102.473L146.017 102.491Z" fill="white"/>
<path d="M155.927 102.491C155.132 102.297 154.496 102.067 154.001 101.749L155.026 99.401C155.467 99.6835 155.997 99.8954 156.615 100.054C157.234 100.213 157.834 100.302 158.453 100.302C159 100.302 159.406 100.249 159.636 100.125C159.866 100.019 159.989 99.8424 159.989 99.6306C159.989 99.4187 159.848 99.2598 159.565 99.1715C159.283 99.0832 158.823 98.9949 158.223 98.9066C157.446 98.8183 156.774 98.6771 156.227 98.5182C155.679 98.3592 155.202 98.0767 154.796 97.653C154.39 97.2292 154.196 96.6465 154.196 95.8696C154.196 95.2339 154.39 94.6866 154.761 94.1922C155.132 93.6978 155.679 93.3093 156.404 93.0268C157.128 92.7443 157.976 92.603 158.982 92.603C159.689 92.603 160.396 92.6737 161.102 92.8149C161.809 92.9562 162.392 93.1681 162.851 93.4329L161.826 95.7637C160.961 95.2869 160.007 95.0397 159 95.0397C158.453 95.0397 158.064 95.1103 157.799 95.2339C157.534 95.3575 157.41 95.5341 157.41 95.7284C157.41 95.9579 157.552 96.1168 157.834 96.2051C158.117 96.2934 158.576 96.3817 159.212 96.4876C160.025 96.6112 160.696 96.7525 161.226 96.9114C161.756 97.0703 162.215 97.3528 162.604 97.7766C162.992 98.2003 163.186 98.783 163.186 99.5246C163.186 100.143 162.992 100.69 162.621 101.184C162.25 101.679 161.703 102.05 160.961 102.332C160.237 102.615 159.353 102.756 158.329 102.756C157.499 102.756 156.704 102.668 155.909 102.473L155.927 102.491Z" fill="white"/>
<path d="M164.9 91.173C164.511 90.8198 164.317 90.3961 164.317 89.8664C164.317 89.3367 164.511 88.9129 164.9 88.5597C165.289 88.2066 165.801 88.03 166.419 88.03C167.037 88.03 167.55 88.1889 167.938 88.5244C168.327 88.8599 168.521 89.2837 168.521 89.7957C168.521 90.3078 168.327 90.7845 167.938 91.1377C167.55 91.4908 167.037 91.6674 166.419 91.6674C165.801 91.6674 165.289 91.4908 164.9 91.1377V91.173ZM164.706 92.7798H168.15V102.597H164.706V92.7798Z" fill="white"/>
<path d="M171.506 102.491C170.712 102.297 170.076 102.067 169.581 101.749L170.606 99.401C171.047 99.6835 171.577 99.8954 172.195 100.054C172.814 100.213 173.414 100.302 174.032 100.302C174.58 100.302 174.986 100.249 175.216 100.125C175.446 100.019 175.569 99.8424 175.569 99.6306C175.569 99.4187 175.428 99.2598 175.145 99.1715C174.863 99.0832 174.403 98.9949 173.803 98.9066C173.026 98.8183 172.354 98.6771 171.807 98.5182C171.259 98.3592 170.782 98.0767 170.376 97.653C169.97 97.2292 169.775 96.6465 169.775 95.8696C169.775 95.2339 169.97 94.6866 170.341 94.1922C170.712 93.6978 171.259 93.3093 171.983 93.0268C172.708 92.7443 173.555 92.603 174.562 92.603C175.269 92.603 175.975 92.6737 176.682 92.8149C177.389 92.9562 177.971 93.1681 178.431 93.4329L177.406 95.7637C176.541 95.2869 175.587 95.0397 174.58 95.0397C174.032 95.0397 173.644 95.1103 173.379 95.2339C173.114 95.3575 172.99 95.5341 172.99 95.7284C172.99 95.9579 173.132 96.1168 173.414 96.2051C173.697 96.2934 174.156 96.3817 174.792 96.4876C175.604 96.6112 176.276 96.7525 176.806 96.9114C177.336 97.0703 177.795 97.3528 178.183 97.7766C178.572 98.2003 178.766 98.783 178.766 99.5246C178.766 100.143 178.572 100.69 178.201 101.184C177.83 101.679 177.283 102.05 176.541 102.332C175.816 102.615 174.933 102.756 173.909 102.756C173.079 102.756 172.284 102.668 171.489 102.473L171.506 102.491Z" fill="white"/>
<path d="M187.051 102.208C186.768 102.385 186.415 102.526 185.991 102.632C185.567 102.72 185.125 102.773 184.666 102.773C183.394 102.773 182.405 102.456 181.716 101.838C181.027 101.202 180.692 100.266 180.692 99.0301V95.7283H179.261V93.1504H180.692V90.5901H184.136V93.1504H186.379V95.7283H184.136V98.9948C184.136 99.348 184.224 99.6128 184.419 99.8247C184.613 100.019 184.86 100.125 185.178 100.125C185.584 100.125 185.92 100.019 186.22 99.8247L187.068 102.226L187.051 102.208Z" fill="white"/>
<path d="M196.289 93.7332C197.155 94.4748 197.578 95.6225 197.578 97.141V102.597H194.364V101.326C193.869 102.279 192.898 102.756 191.467 102.756C190.707 102.756 190.054 102.615 189.488 102.35C188.923 102.085 188.517 101.732 188.234 101.273C187.952 100.814 187.81 100.302 187.81 99.7189C187.81 98.7831 188.164 98.0591 188.87 97.5471C189.577 97.035 190.69 96.7702 192.173 96.7702H194.134C194.081 95.7284 193.374 95.2164 192.05 95.2164C191.573 95.2164 191.096 95.287 190.619 95.4459C190.142 95.6048 189.718 95.799 189.382 96.0639L188.217 93.7332C188.764 93.3624 189.418 93.0975 190.195 92.8856C190.972 92.6737 191.749 92.5854 192.544 92.5854C194.169 92.5854 195.424 92.9563 196.271 93.6979L196.289 93.7332ZM193.48 100.302C193.781 100.107 193.993 99.8248 194.134 99.454V98.6065H192.65C191.643 98.6065 191.149 98.942 191.149 99.5953C191.149 99.8955 191.255 100.143 191.484 100.319C191.714 100.496 192.032 100.584 192.421 100.584C192.809 100.584 193.163 100.496 193.48 100.302Z" fill="white"/>
<path d="M209.095 93.698C209.837 94.422 210.208 95.5167 210.208 96.9822V102.597H206.764V97.5473C206.764 96.2053 206.216 95.5344 205.156 95.5344C204.556 95.5344 204.096 95.7286 203.743 96.117C203.39 96.5055 203.213 97.0882 203.213 97.8474V102.597H199.769V92.7799H203.054V93.8568C203.443 93.4507 203.902 93.1507 204.432 92.9388C204.962 92.7269 205.545 92.6208 206.163 92.6208C207.382 92.6208 208.371 92.9917 209.113 93.7157L209.095 93.698Z" fill="white"/>
<path d="M219.146 102.208C218.863 102.385 218.51 102.526 218.086 102.632C217.662 102.72 217.221 102.773 216.761 102.773C215.49 102.773 214.5 102.456 213.811 101.838C213.123 101.202 212.787 100.266 212.787 99.0301V95.7283H211.356V93.1504H212.787V90.5901H216.231V93.1504H218.475V95.7283H216.231V98.9948C216.231 99.348 216.32 99.6128 216.514 99.8247C216.708 100.019 216.956 100.125 217.274 100.125C217.68 100.125 218.016 100.019 218.316 99.8247L219.164 102.226L219.146 102.208Z" fill="white"/>
</g>
<defs>
<clipPath id="clip0_63_396">
<rect width="338" height="691" fill="white"/>
</clipPath>
</defs>
</svg>
